<svg xmlns="http://www.w3.org/2000/svg" xmlns:xlink="http://www.w3.org/1999/xlink" id="body_1" preserveAspectRatio="xMinYMin meet" viewBox="0 0 793 1121"><defs><clipPath id="1"><path id="" clip-rule="evenodd" transform="matrix(1 0 0 1 0 0)" d="M0 841L0 -0.7999878L0 -0.7999878L595.2 -0.7999878L595.2 -0.7999878L595.2 841L595.2 841L0 841z" /></clipPath><clipPath id="2"><path id="" clip-rule="evenodd" transform="matrix(1 0 0 1 0 0)" d="M33.96 64.71997L484.8 64.71997L484.8 64.71997L484.8 35.19995L484.8 35.19995L33.96 35.19995z" /></clipPath><clipPath id="3"><path id="" clip-rule="evenodd" transform="matrix(1 0 0 1 0 0)" d="M33.96 64.71997L484.8 64.71997L484.8 64.71997L484.8 35.19995L484.8 35.19995L33.96 35.19995z" /></clipPath><clipPath id="4"><path id="" clip-rule="evenodd" transform="matrix(1 0 0 1 0 0)" d="M484.8 151.14L561.36 151.14L561.36 151.14L561.36 35.20001L561.36 35.20001L484.8 35.20001z" /></clipPath><clipPath id="5"><path id="" clip-rule="evenodd" transform="matrix(1 0 0 1 0 0)" d="M33.96 76L484.8 76L484.8 76L484.8 64.71997L484.8 64.71997L33.96 64.71997z" /></clipPath><clipPath id="6"><path id="" clip-rule="evenodd" transform="matrix(1 0 0 1 0 0)" d="M33.96 93.06L484.8 93.06L484.8 93.06L484.8 76.73999L484.8 76.73999L33.96 76.73999z" /></clipPath><clipPath id="7"><path id="" clip-rule="evenodd" transform="matrix(1 0 0 1 0 0)" d="M33.96 93.06L484.8 93.06L484.8 93.06L484.8 76.716L484.8 76.716L33.96 76.716z" /></clipPath><clipPath id="8"><path id="" clip-rule="evenodd" transform="matrix(1 0 0 1 0 0)" d="M33.96 93.06L484.8 93.06L484.8 93.06L484.8 76.73999L484.8 76.73999L33.96 76.73999z" /></clipPath><clipPath id="9"><path id="" clip-rule="evenodd" transform="matrix(1 0 0 1 0 0)" d="M33.96 93.06L484.8 93.06L484.8 93.06L484.8 76.716L484.8 76.716L33.96 76.716z" /></clipPath><clipPath id="10"><path id="" clip-rule="evenodd" transform="matrix(1 0 0 1 0 0)" d="M33.96 93.06L484.8 93.06L484.8 93.06L484.8 76.73999L484.8 76.73999L33.96 76.73999z" /></clipPath><clipPath id="11"><path id="" clip-rule="evenodd" transform="matrix(1 0 0 1 0 0)" d="M33.96 93.06L484.8 93.06L484.8 93.06L484.8 76.716L484.8 76.716L33.96 76.716z" /></clipPath><clipPath id="12"><path id="" clip-rule="evenodd" transform="matrix(1 0 0 1 0 0)" d="M33.96 93.06L484.8 93.06L484.8 93.06L484.8 76.73999L484.8 76.73999L33.96 76.73999z" /></clipPath><clipPath id="13"><path id="" clip-rule="evenodd" transform="matrix(1 0 0 1 0 0)" d="M33.96 93.06L484.8 93.06L484.8 93.06L484.8 76.716L484.8 76.716L33.96 76.716z" /></clipPath><clipPath id="14"><path id="" clip-rule="evenodd" transform="matrix(1 0 0 1 0 0)" d="M33.96 93.06L484.8 93.06L484.8 93.06L484.8 76.73999L484.8 76.73999L33.96 76.73999z" /></clipPath><clipPath id="15"><path id="" clip-rule="evenodd" transform="matrix(1 0 0 1 0 0)" d="M33.96 93.06L484.8 93.06L484.8 93.06L484.8 76.716L484.8 76.716L33.96 76.716z" /></clipPath><clipPath id="16"><path id="" clip-rule="evenodd" transform="matrix(1 0 0 1 0 0)" d="M33.96 93.06L484.8 93.06L484.8 93.06L484.8 76.73999L484.8 76.73999L33.96 76.73999z" /></clipPath><clipPath id="17"><path id="" clip-rule="evenodd" transform="matrix(1 0 0 1 0 0)" d="M33.96 93.06L484.8 93.06L484.8 93.06L484.8 76.716L484.8 76.716L33.96 76.716z" /></clipPath><clipPath id="18"><path id="" clip-rule="evenodd" transform="matrix(1 0 0 1 0 0)" d="M33.96 93.06L484.8 93.06L484.8 93.06L484.8 76.73999L484.8 76.73999L33.96 76.73999z" /></clipPath><clipPath id="19"><path id="" clip-rule="evenodd" transform="matrix(1 0 0 1 0 0)" d="M33.96 93.06L484.8 93.06L484.8 93.06L484.8 76.716L484.8 76.716L33.96 76.716z" /></clipPath><clipPath id="20"><path id="" clip-rule="evenodd" transform="matrix(1 0 0 1 0 0)" d="M33.96 93.06L484.8 93.06L484.8 93.06L484.8 76.73999L484.8 76.73999L33.96 76.73999z" /></clipPath><clipPath id="21"><path id="" clip-rule="evenodd" transform="matrix(1 0 0 1 0 0)" d="M33.96 93.06L484.8 93.06L484.8 93.06L484.8 76.716L484.8 76.716L33.96 76.716z" /></clipPath><clipPath id="22"><path id="" clip-rule="evenodd" transform="matrix(1 0 0 1 0 0)" d="M33.96 93.06L484.8 93.06L484.8 93.06L484.8 76.73999L484.8 76.73999L33.96 76.73999z" /></clipPath><clipPath id="23"><path id="" clip-rule="evenodd" transform="matrix(1 0 0 1 0 0)" d="M33.96 93.06L484.8 93.06L484.8 93.06L484.8 76.716L484.8 76.716L33.96 76.716z" /></clipPath><clipPath id="24"><path id="" clip-rule="evenodd" transform="matrix(1 0 0 1 0 0)" d="M33.96 93.06L484.8 93.06L484.8 93.06L484.8 76.73999L484.8 76.73999L33.96 76.73999z" /></clipPath><clipPath id="25"><path id="" clip-rule="evenodd" transform="matrix(1 0 0 1 0 0)" d="M33.96 93.06L484.8 93.06L484.8 93.06L484.8 76.716L484.8 76.716L33.96 76.716z" /></clipPath><clipPath id="26"><path id="" clip-rule="evenodd" transform="matrix(1 0 0 1 0 0)" d="M33.96 93.06L484.8 93.06L484.8 93.06L484.8 76.73999L484.8 76.73999L33.96 76.73999z" /></clipPath><clipPath id="27"><path id="" clip-rule="evenodd" transform="matrix(1 0 0 1 0 0)" d="M33.96 93.06L484.8 93.06L484.8 93.06L484.8 76.716L484.8 76.716L33.96 76.716z" /></clipPath><clipPath id="28"><path id="" clip-rule="evenodd" transform="matrix(1 0 0 1 0 0)" d="M33.96 93.06L484.8 93.06L484.8 93.06L484.8 76.73999L484.8 76.73999L33.96 76.73999z" /></clipPath><clipPath id="29"><path id="" clip-rule="evenodd" transform="matrix(1 0 0 1 0 0)" d="M33.96 93.06L484.8 93.06L484.8 93.06L484.8 76.716L484.8 76.716L33.96 76.716z" /></clipPath><clipPath id="30"><path id="" clip-rule="evenodd" transform="matrix(1 0 0 1 0 0)" d="M33.96 93.06L484.8 93.06L484.8 93.06L484.8 76.73999L484.8 76.73999L33.96 76.73999z" /></clipPath><clipPath id="31"><path id="" clip-rule="evenodd" transform="matrix(1 0 0 1 0 0)" d="M33.96 93.06L484.8 93.06L484.8 93.06L484.8 76.716L484.8 76.716L33.96 76.716z" /></clipPath><clipPath id="32"><path id="" clip-rule="evenodd" transform="matrix(1 0 0 1 0 0)" d="M33.96 93.06L484.8 93.06L484.8 93.06L484.8 76.73999L484.8 76.73999L33.96 76.73999z" /></clipPath><clipPath id="33"><path id="" clip-rule="evenodd" transform="matrix(1 0 0 1 0 0)" d="M33.96 93.06L484.8 93.06L484.8 93.06L484.8 76.716L484.8 76.716L33.96 76.716z" /></clipPath><clipPath id="34"><path id="" clip-rule="evenodd" transform="matrix(1 0 0 1 0 0)" d="M33.96 93.06L484.8 93.06L484.8 93.06L484.8 76.73999L484.8 76.73999L33.96 76.73999z" /></clipPath><clipPath id="35"><path id="" clip-rule="evenodd" transform="matrix(1 0 0 1 0 0)" d="M33.96 93.06L484.8 93.06L484.8 93.06L484.8 76.716L484.8 76.716L33.96 76.716z" /></clipPath><clipPath id="36"><path id="" clip-rule="evenodd" transform="matrix(1 0 0 1 0 0)" d="M33.96 93.06L484.8 93.06L484.8 93.06L484.8 76.73999L484.8 76.73999L33.96 76.73999z" /></clipPath><clipPath id="37"><path id="" clip-rule="evenodd" transform="matrix(1 0 0 1 0 0)" d="M33.96 93.06L484.8 93.06L484.8 93.06L484.8 76.716L484.8 76.716L33.96 76.716z" /></clipPath><clipPath id="38"><path id="" clip-rule="evenodd" transform="matrix(1 0 0 1 0 0)" d="M33.96 108.66L110.664 108.66L110.664 108.66L110.664 93.77997L110.664 93.77997L33.96 93.77997z" /></clipPath><clipPath id="39"><path id="" clip-rule="evenodd" transform="matrix(1 0 0 1 0 0)" d="M33.96 108.66L110.664 108.66L110.664 108.66L110.664 93.77997L110.664 93.77997L33.96 93.77997z" /></clipPath><clipPath id="40"><path id="" clip-rule="evenodd" transform="matrix(1 0 0 1 0 0)" d="M110.66 108.66L220.12 108.66L220.12 108.66L220.12 93.77997L220.12 93.77997L110.66 93.77997z" /></clipPath><clipPath id="41"><path id="" clip-rule="evenodd" transform="matrix(1 0 0 1 0 0)" d="M110.66 108.66L220.12 108.66L220.12 108.66L220.12 93.77997L220.12 93.77997L110.66 93.77997z" /></clipPath><clipPath id="42"><path id="" clip-rule="evenodd" transform="matrix(1 0 0 1 0 0)" d="M110.66 108.66L220.12 108.66L220.12 108.66L220.12 93.77997L220.12 93.77997L110.66 93.77997z" /></clipPath><clipPath id="43"><path id="" clip-rule="evenodd" transform="matrix(1 0 0 1 0 0)" d="M220.13 108.66L298.874 108.66L298.874 108.66L298.874 93.77997L298.874 93.77997L220.13 93.77997z" /></clipPath><clipPath id="44"><path id="" clip-rule="evenodd" transform="matrix(1 0 0 1 0 0)" d="M220.13 108.66L298.874 108.66L298.874 108.66L298.874 93.77997L298.874 93.77997L220.13 93.77997z" /></clipPath><clipPath id="45"><path id="" clip-rule="evenodd" transform="matrix(1 0 0 1 0 0)" d="M220.13 108.66L298.874 108.66L298.874 108.66L298.874 93.77997L298.874 93.77997L220.13 93.77997z" /></clipPath><clipPath id="46"><path id="" clip-rule="evenodd" transform="matrix(1 0 0 1 0 0)" d="M220.13 108.66L298.874 108.66L298.874 108.66L298.874 93.77997L298.874 93.77997L220.13 93.77997z" /></clipPath><clipPath id="47"><path id="" clip-rule="evenodd" transform="matrix(1 0 0 1 0 0)" d="M298.87 108.66L484.8 108.66L484.8 108.66L484.8 93.77997L484.8 93.77997L298.87 93.77997z" /></clipPath><clipPath id="48"><path id="" clip-rule="evenodd" transform="matrix(1 0 0 1 0 0)" d="M298.87 108.66L484.8 108.66L484.8 108.66L484.8 93.77997L484.8 93.77997L298.87 93.77997z" /></clipPath><clipPath id="49"><path id="" clip-rule="evenodd" transform="matrix(1 0 0 1 0 0)" d="M33.96 123.54L110.664 123.54L110.664 123.54L110.664 108.66L110.664 108.66L33.96 108.66z" /></clipPath><clipPath id="50"><path id="" clip-rule="evenodd" transform="matrix(1 0 0 1 0 0)" d="M33.96 123.54L110.664 123.54L110.664 123.54L110.664 108.66L110.664 108.66L33.96 108.66z" /></clipPath><clipPath id="51"><path id="" clip-rule="evenodd" transform="matrix(1 0 0 1 0 0)" d="M110.66 123.54L220.12 123.54L220.12 123.54L220.12 108.66L220.12 108.66L110.66 108.66z" /></clipPath><clipPath id="52"><path id="" clip-rule="evenodd" transform="matrix(1 0 0 1 0 0)" d="M110.66 123.54L220.12 123.54L220.12 123.54L220.12 108.66L220.12 108.66L110.66 108.66z" /></clipPath><clipPath id="53"><path id="" clip-rule="evenodd" transform="matrix(1 0 0 1 0 0)" d="M110.66 123.54L220.12 123.54L220.12 123.54L220.12 108.66L220.12 108.66L110.66 108.66z" /></clipPath><clipPath id="54"><path id="" clip-rule="evenodd" transform="matrix(1 0 0 1 0 0)" d="M110.66 123.54L220.12 123.54L220.12 123.54L220.12 108.66L220.12 108.66L110.66 108.66z" /></clipPath><clipPath id="55"><path id="" clip-rule="evenodd" transform="matrix(1 0 0 1 0 0)" d="M220.13 123.54L298.874 123.54L298.874 123.54L298.874 108.66L298.874 108.66L220.13 108.66z" /></clipPath><clipPath id="56"><path id="" clip-rule="evenodd" transform="matrix(1 0 0 1 0 0)" d="M220.13 123.54L298.874 123.54L298.874 123.54L298.874 108.66L298.874 108.66L220.13 108.66z" /></clipPath><clipPath id="57"><path id="" clip-rule="evenodd" transform="matrix(1 0 0 1 0 0)" d="M220.13 123.54L298.874 123.54L298.874 123.54L298.874 108.66L298.874 108.66L220.13 108.66z" /></clipPath><clipPath id="58"><path id="" clip-rule="evenodd" transform="matrix(1 0 0 1 0 0)" d="M298.87 123.54L484.8 123.54L484.8 123.54L484.8 108.66L484.8 108.66L298.87 108.66z" /></clipPath><clipPath id="59"><path id="" clip-rule="evenodd" transform="matrix(1 0 0 1 0 0)" d="M298.87 123.54L484.8 123.54L484.8 123.54L484.8 108.66L484.8 108.66L298.87 108.66z" /></clipPath><clipPath id="60"><path id="" clip-rule="evenodd" transform="matrix(1 0 0 1 0 0)" d="M298.87 123.54L484.8 123.54L484.8 123.54L484.8 108.66L484.8 108.66L298.87 108.66z" /></clipPath><clipPath id="61"><path id="" clip-rule="evenodd" transform="matrix(1 0 0 1 0 0)" d="M298.87 123.54L484.8 123.54L484.8 123.54L484.8 108.66L484.8 108.66L298.87 108.66z" /></clipPath><clipPath id="62"><path id="" clip-rule="evenodd" transform="matrix(1 0 0 1 0 0)" d="M298.87 123.54L484.8 123.54L484.8 123.54L484.8 108.66L484.8 108.66L298.87 108.66z" /></clipPath><clipPath id="63"><path id="" clip-rule="evenodd" transform="matrix(1 0 0 1 0 0)" d="M298.87 123.54L484.8 123.54L484.8 123.54L484.8 108.66L484.8 108.66L298.87 108.66z" /></clipPath><clipPath id="64"><path id="" clip-rule="evenodd" transform="matrix(1 0 0 1 0 0)" d="M33.96 134.82L484.8 134.82L484.8 134.82L484.8 123.54L484.8 123.54L33.96 123.54z" /></clipPath><clipPath id="65"><path id="" clip-rule="evenodd" transform="matrix(1 0 0 1 0 0)" d="M33.96 151.14L301.39 151.14L301.39 151.14L301.39 134.82L301.39 134.82L33.96 134.82z" /></clipPath><clipPath id="66"><path id="" clip-rule="evenodd" transform="matrix(1 0 0 1 0 0)" d="M33.96 151.14L301.39 151.14L301.39 151.14L301.39 134.82L301.39 134.82L33.96 134.82z" /></clipPath><clipPath id="67"><path id="" clip-rule="evenodd" transform="matrix(1 0 0 1 0 0)" d="M33.96 151.14L301.39 151.14L301.39 151.14L301.39 134.82L301.39 134.82L33.96 134.82z" /></clipPath><clipPath id="68"><path id="" clip-rule="evenodd" transform="matrix(1 0 0 1 0 0)" d="M301.39 151.14L484.8 151.14L484.8 151.14L484.8 134.82L484.8 134.82L301.39 134.82z" /></clipPath><clipPath id="69"><path id="" clip-rule="evenodd" transform="matrix(1 0 0 1 0 0)" d="M301.39 151.14L484.8 151.14L484.8 151.14L484.8 134.82L484.8 134.82L301.39 134.82z" /></clipPath><clipPath id="70"><path id="" clip-rule="evenodd" transform="matrix(1 0 0 1 0 0)" d="M301.39 151.14L484.8 151.14L484.8 151.14L484.8 134.82L484.8 134.82L301.39 134.82z" /></clipPath><clipPath id="71"><path id="" clip-rule="evenodd" transform="matrix(1 0 0 1 0 0)" d="M301.39 151.14L484.8 151.14L484.8 151.14L484.8 134.82L484.8 134.82L301.39 134.82z" /></clipPath><clipPath id="72"><path id="" clip-rule="evenodd" transform="matrix(1 0 0 1 0 0)" d="M301.39 151.14L484.8 151.14L484.8 151.14L484.8 134.82L484.8 134.82L301.39 134.82z" /></clipPath><clipPath id="73"><path id="" clip-rule="evenodd" transform="matrix(1 0 0 1 0 0)" d="M33.96 154.74L561.36 154.74L561.36 154.74L561.36 151.86L561.36 151.86L33.96 151.86z" /></clipPath><clipPath id="74"><path id="" clip-rule="evenodd" transform="matrix(1 0 0 1 0 0)" d="M33.96 195.54L440.62 195.54L440.62 195.54L440.62 154.74L440.62 154.74L33.96 154.74z" /></clipPath><clipPath id="75"><path id="" clip-rule="evenodd" transform="matrix(1 0 0 1 0 0)" d="M33.96 195.54L440.62 195.54L440.62 195.54L440.62 154.74L440.62 154.74L33.96 154.74z" /></clipPath><clipPath id="76"><path id="" clip-rule="evenodd" transform="matrix(1 0 0 1 0 0)" d="M33.96 195.54L440.62 195.54L440.62 195.54L440.62 154.74L440.62 154.74L33.96 154.74z" /></clipPath><clipPath id="77"><path id="" clip-rule="evenodd" transform="matrix(1 0 0 1 0 0)" d="M33.96 195.54L440.62 195.54L440.62 195.54L440.62 154.74L440.62 154.74L33.96 154.74z" /></clipPath><clipPath id="78"><path id="" clip-rule="evenodd" transform="matrix(1 0 0 1 0 0)" d="M33.96 195.54L440.62 195.54L440.62 195.54L440.62 154.74L440.62 154.74L33.96 154.74z" /></clipPath><clipPath id="79"><path id="" clip-rule="evenodd" transform="matrix(1 0 0 1 0 0)" d="M33.96 195.54L440.62 195.54L440.62 195.54L440.62 154.74L440.62 154.74L33.96 154.74z" /></clipPath><clipPath id="80"><path id="" clip-rule="evenodd" transform="matrix(1 0 0 1 0 0)" d="M33.96 195.54L440.62 195.54L440.62 195.54L440.62 154.74L440.62 154.74L33.96 154.74z" /></clipPath><clipPath id="81"><path id="" clip-rule="evenodd" transform="matrix(1 0 0 1 0 0)" d="M33.96 195.54L440.62 195.54L440.62 195.54L440.62 154.74L440.62 154.74L33.96 154.74z" /></clipPath><clipPath id="82"><path id="" clip-rule="evenodd" transform="matrix(1 0 0 1 0 0)" d="M33.96 195.54L440.62 195.54L440.62 195.54L440.62 154.74L440.62 154.74L33.96 154.74z" /></clipPath><clipPath id="83"><path id="" clip-rule="evenodd" transform="matrix(1 0 0 1 0 0)" d="M440.62 195.54L561.36 195.54L561.36 195.54L561.36 154.74L561.36 154.74L440.62 154.74z" /></clipPath><clipPath id="84"><path id="" clip-rule="evenodd" transform="matrix(1 0 0 1 0 0)" d="M440.62 195.54L561.36 195.54L561.36 195.54L561.36 154.74L561.36 154.74L440.62 154.74z" /></clipPath><clipPath id="85"><path id="" clip-rule="evenodd" transform="matrix(1 0 0 1 0 0)" d="M440.62 195.54L561.36 195.54L561.36 195.54L561.36 154.74L561.36 154.74L440.62 154.74z" /></clipPath><clipPath id="86"><path id="" clip-rule="evenodd" transform="matrix(1 0 0 1 0 0)" d="M440.62 195.54L561.36 195.54L561.36 195.54L561.36 154.74L561.36 154.74L440.62 154.74z" /></clipPath><clipPath id="87"><path id="" clip-rule="evenodd" transform="matrix(1 0 0 1 0 0)" d="M440.62 195.54L561.36 195.54L561.36 195.54L561.36 154.74L561.36 154.74L440.62 154.74z" /></clipPath><clipPath id="88"><path id="" clip-rule="evenodd" transform="matrix(1 0 0 1 0 0)" d="M440.62 195.54L561.36 195.54L561.36 195.54L561.36 154.74L561.36 154.74L440.62 154.74z" /></clipPath><clipPath id="89"><path id="" clip-rule="evenodd" transform="matrix(1 0 0 1 0 0)" d="M440.62 195.54L561.36 195.54L561.36 195.54L561.36 154.74L561.36 154.74L440.62 154.74z" /></clipPath><clipPath id="90"><path id="" clip-rule="evenodd" transform="matrix(1 0 0 1 0 0)" d="M33.96 209.1L561.36 209.1L561.36 209.1L561.36 195.54L561.36 195.54L33.96 195.54z" /></clipPath><clipPath id="91"><path id="" clip-rule="evenodd" transform="matrix(1 0 0 1 0 0)" d="M33.96 209.1L561.36 209.1L561.36 209.1L561.36 195.54L561.36 195.54L33.96 195.54z" /></clipPath><clipPath id="92"><path id="" clip-rule="evenodd" transform="matrix(1 0 0 1 0 0)" d="M33.96 209.1L561.36 209.1L561.36 209.1L561.36 195.54L561.36 195.54L33.96 195.54z" /></clipPath><clipPath id="93"><path id="" clip-rule="evenodd" transform="matrix(1 0 0 1 0 0)" d="M33.96 209.1L561.36 209.1L561.36 209.1L561.36 195.54L561.36 195.54L33.96 195.54z" /></clipPath><clipPath id="94"><path id="" clip-rule="evenodd" transform="matrix(1 0 0 1 0 0)" d="M33.96 209.1L561.36 209.1L561.36 209.1L561.36 195.54L561.36 195.54L33.96 195.54z" /></clipPath><clipPath id="95"><path id="" clip-rule="evenodd" transform="matrix(1 0 0 1 0 0)" d="M33.96 209.1L561.36 209.1L561.36 209.1L561.36 195.54L561.36 195.54L33.96 195.54z" /></clipPath><clipPath id="96"><path id="" clip-rule="evenodd" transform="matrix(1 0 0 1 0 0)" d="M33.96 209.1L561.36 209.1L561.36 209.1L561.36 195.54L561.36 195.54L33.96 195.54z" /></clipPath><clipPath id="97"><path id="" clip-rule="evenodd" transform="matrix(1 0 0 1 0 0)" d="M33.96 209.1L561.36 209.1L561.36 209.1L561.36 195.54L561.36 195.54L33.96 195.54z" /></clipPath><clipPath id="98"><path id="" clip-rule="evenodd" transform="matrix(1 0 0 1 0 0)" d="M33.96 209.1L561.36 209.1L561.36 209.1L561.36 195.54L561.36 195.54L33.96 195.54z" /></clipPath><clipPath id="99"><path id="" clip-rule="evenodd" transform="matrix(1 0 0 1 0 0)" d="M33.96 209.1L561.36 209.1L561.36 209.1L561.36 195.54L561.36 195.54L33.96 195.54z" /></clipPath><clipPath id="100"><path id="" clip-rule="evenodd" transform="matrix(1 0 0 1 0 0)" d="M33.96 209.1L561.36 209.1L561.36 209.1L561.36 195.54L561.36 195.54L33.96 195.54z" /></clipPath><clipPath id="101"><path id="" clip-rule="evenodd" transform="matrix(1 0 0 1 0 0)" d="M33.96 209.1L561.36 209.1L561.36 209.1L561.36 195.54L561.36 195.54L33.96 195.54z" /></clipPath><clipPath id="102"><path id="" clip-rule="evenodd" transform="matrix(1 0 0 1 0 0)" d="M33.96 209.1L561.36 209.1L561.36 209.1L561.36 195.54L561.36 195.54L33.96 195.54z" /></clipPath><clipPath id="103"><path id="" clip-rule="evenodd" transform="matrix(1 0 0 1 0 0)" d="M33.96 209.1L561.36 209.1L561.36 209.1L561.36 195.54L561.36 195.54L33.96 195.54z" /></clipPath><clipPath id="104"><path id="" clip-rule="evenodd" transform="matrix(1 0 0 1 0 0)" d="M33.96 213.06L561.36 213.06L561.36 213.06L561.36 209.1L561.36 209.1L33.96 209.1z" /></clipPath><clipPath id="105"><path id="" clip-rule="evenodd" transform="matrix(1 0 0 1 0 0)" d="M33.96 226.74L436.18 226.74L436.18 226.74L436.18 213.06L436.18 213.06L33.96 213.06z" /></clipPath><clipPath id="106"><path id="" clip-rule="evenodd" transform="matrix(1 0 0 1 0 0)" d="M33.96 226.74L436.18 226.74L436.18 226.74L436.18 213.06L436.18 213.06L33.96 213.06z" /></clipPath><clipPath id="107"><path id="" clip-rule="evenodd" transform="matrix(1 0 0 1 0 0)" d="M33.96 226.74L436.18 226.74L436.18 226.74L436.18 213.06L436.18 213.06L33.96 213.06z" /></clipPath><clipPath id="108"><path id="" clip-rule="evenodd" transform="matrix(1 0 0 1 0 0)" d="M33.96 226.74L436.18 226.74L436.18 226.74L436.18 213.06L436.18 213.06L33.96 213.06z" /></clipPath><clipPath id="109"><path id="" clip-rule="evenodd" transform="matrix(1 0 0 1 0 0)" d="M33.96 226.74L436.18 226.74L436.18 226.74L436.18 213.06L436.18 213.06L33.96 213.06z" /></clipPath><clipPath id="110"><path id="" clip-rule="evenodd" transform="matrix(1 0 0 1 0 0)" d="M436.18 226.74L561.36 226.74L561.36 226.74L561.36 213.06L561.36 213.06L436.18 213.06z" /></clipPath><clipPath id="111"><path id="" clip-rule="evenodd" transform="matrix(1 0 0 1 0 0)" d="M33.96 240.33L561.36 240.33L561.36 240.33L561.36 226.746L561.36 226.746L33.96 226.746z" /></clipPath><clipPath id="112"><path id="" clip-rule="evenodd" transform="matrix(1 0 0 1 0 0)" d="M33.96 240.33L561.36 240.33L561.36 240.33L561.36 226.746L561.36 226.746L33.96 226.746z" /></clipPath><clipPath id="113"><path id="" clip-rule="evenodd" transform="matrix(1 0 0 1 0 0)" d="M33.96 240.33L561.36 240.33L561.36 240.33L561.36 226.746L561.36 226.746L33.96 226.746z" /></clipPath><clipPath id="114"><path id="" clip-rule="evenodd" transform="matrix(1 0 0 1 0 0)" d="M33.96 240.33L561.36 240.33L561.36 240.33L561.36 226.746L561.36 226.746L33.96 226.746z" /></clipPath><clipPath id="115"><path id="" clip-rule="evenodd" transform="matrix(1 0 0 1 0 0)" d="M33.96 240.33L561.36 240.33L561.36 240.33L561.36 226.746L561.36 226.746L33.96 226.746z" /></clipPath><clipPath id="116"><path id="" clip-rule="evenodd" transform="matrix(1 0 0 1 0 0)" d="M33.96 240.33L561.36 240.33L561.36 240.33L561.36 226.746L561.36 226.746L33.96 226.746z" /></clipPath><clipPath id="117"><path id="" clip-rule="evenodd" transform="matrix(1 0 0 1 0 0)" d="M33.96 240.33L561.36 240.33L561.36 240.33L561.36 226.746L561.36 226.746L33.96 226.746z" /></clipPath><clipPath id="118"><path id="" clip-rule="evenodd" transform="matrix(1 0 0 1 0 0)" d="M33.96 240.33L561.36 240.33L561.36 240.33L561.36 226.746L561.36 226.746L33.96 226.746z" /></clipPath><clipPath id="119"><path id="" clip-rule="evenodd" transform="matrix(1 0 0 1 0 0)" d="M33.96 240.33L561.36 240.33L561.36 240.33L561.36 226.746L561.36 226.746L33.96 226.746z" /></clipPath><clipPath id="120"><path id="" clip-rule="evenodd" transform="matrix(1 0 0 1 0 0)" d="M33.96 240.33L561.36 240.33L561.36 240.33L561.36 226.746L561.36 226.746L33.96 226.746z" /></clipPath><clipPath id="121"><path id="" clip-rule="evenodd" transform="matrix(1 0 0 1 0 0)" d="M33.96 240.33L561.36 240.33L561.36 240.33L561.36 226.746L561.36 226.746L33.96 226.746z" /></clipPath><clipPath id="122"><path id="" clip-rule="evenodd" transform="matrix(1 0 0 1 0 0)" d="M33.96 240.33L561.36 240.33L561.36 240.33L561.36 226.746L561.36 226.746L33.96 226.746z" /></clipPath><clipPath id="123"><path id="" clip-rule="evenodd" transform="matrix(1 0 0 1 0 0)" d="M33.96 240.33L561.36 240.33L561.36 240.33L561.36 226.746L561.36 226.746L33.96 226.746z" /></clipPath><clipPath id="124"><path id="" clip-rule="evenodd" transform="matrix(1 0 0 1 0 0)" d="M33.96 240.33L561.36 240.33L561.36 240.33L561.36 226.746L561.36 226.746L33.96 226.746z" /></clipPath><clipPath id="125"><path id="" clip-rule="evenodd" transform="matrix(1 0 0 1 0 0)" d="M33.96 243.09L561.36 243.09L561.36 243.09L561.36 240.33L561.36 240.33L33.96 240.33z" /></clipPath><clipPath id="126"><path id="" clip-rule="evenodd" transform="matrix(1 0 0 1 0 0)" d="M33.96 254.37L561.36 254.37L561.36 254.37L561.36 243.09L561.36 243.09L33.96 243.09z" /></clipPath><clipPath id="127"><path id="" clip-rule="evenodd" transform="matrix(1 0 0 1 0 0)" d="M33.96 270.69L561.36 270.69L561.36 270.69L561.36 254.37L561.36 254.37L33.96 254.37z" /></clipPath><clipPath id="128"><path id="" clip-rule="evenodd" transform="matrix(1 0 0 1 0 0)" d="M33.96 270.69L561.36 270.69L561.36 270.69L561.36 254.37L561.36 254.37L33.96 254.37z" /></clipPath><clipPath id="129"><path id="" clip-rule="evenodd" transform="matrix(1 0 0 1 0 0)" d="M33.96 309.33L317.47 309.33L317.47 309.33L317.47 271.41L317.47 271.41L33.96 271.41z" /></clipPath><clipPath id="130"><path id="" clip-rule="evenodd" transform="matrix(1 0 0 1 0 0)" d="M33.96 309.33L317.47 309.33L317.47 309.33L317.47 271.41L317.47 271.41L33.96 271.41z" /></clipPath><clipPath id="131"><path id="" clip-rule="evenodd" transform="matrix(1 0 0 1 0 0)" d="M33.96 309.33L317.47 309.33L317.47 309.33L317.47 271.41L317.47 271.41L33.96 271.41z" /></clipPath><clipPath id="132"><path id="" clip-rule="evenodd" transform="matrix(1 0 0 1 0 0)" d="M33.96 309.33L317.47 309.33L317.47 309.33L317.47 271.41L317.47 271.41L33.96 271.41z" /></clipPath><clipPath id="133"><path id="" clip-rule="evenodd" transform="matrix(1 0 0 1 0 0)" d="M33.96 309.33L317.47 309.33L317.47 309.33L317.47 271.41L317.47 271.41L33.96 271.41z" /></clipPath><clipPath id="134"><path id="" clip-rule="evenodd" transform="matrix(1 0 0 1 0 0)" d="M33.96 309.33L317.47 309.33L317.47 309.33L317.47 271.41L317.47 271.41L33.96 271.41z" /></clipPath><clipPath id="135"><path id="" clip-rule="evenodd" transform="matrix(1 0 0 1 0 0)" d="M33.96 309.33L317.47 309.33L317.47 309.33L317.47 271.41L317.47 271.41L33.96 271.41z" /></clipPath><clipPath id="136"><path id="" clip-rule="evenodd" transform="matrix(1 0 0 1 0 0)" d="M33.96 309.33L317.47 309.33L317.47 309.33L317.47 271.41L317.47 271.41L33.96 271.41z" /></clipPath><clipPath id="137"><path id="" clip-rule="evenodd" transform="matrix(1 0 0 1 0 0)" d="M33.96 309.33L317.47 309.33L317.47 309.33L317.47 271.41L317.47 271.41L33.96 271.41z" /></clipPath><clipPath id="138"><path id="" clip-rule="evenodd" transform="matrix(1 0 0 1 0 0)" d="M317.47 309.33L494.76 309.33L494.76 309.33L494.76 271.41L494.76 271.41L317.47 271.41z" /></clipPath><clipPath id="139"><path id="" clip-rule="evenodd" transform="matrix(1 0 0 1 0 0)" d="M317.47 309.33L494.76 309.33L494.76 309.33L494.76 271.41L494.76 271.41L317.47 271.41z" /></clipPath><clipPath id="140"><path id="" clip-rule="evenodd" transform="matrix(1 0 0 1 0 0)" d="M494.76 309.33L561.36 309.33L561.36 309.33L561.36 271.41L561.36 271.41L494.76 271.41z" /></clipPath><clipPath id="141"><path id="" clip-rule="evenodd" transform="matrix(1 0 0 1 0 0)" d="M494.76 309.33L561.36 309.33L561.36 309.33L561.36 271.41L561.36 271.41L494.76 271.41z" /></clipPath><clipPath id="142"><path id="" clip-rule="evenodd" transform="matrix(1 0 0 1 0 0)" d="M494.76 309.33L561.36 309.33L561.36 309.33L561.36 271.41L561.36 271.41L494.76 271.41z" /></clipPath><clipPath id="143"><path id="" clip-rule="evenodd" transform="matrix(1 0 0 1 0 0)" d="M33.96 347.25L324.07 347.25L324.07 347.25L324.07 309.33L324.07 309.33L33.96 309.33z" /></clipPath><clipPath id="144"><path id="" clip-rule="evenodd" transform="matrix(1 0 0 1 0 0)" d="M33.96 347.25L324.07 347.25L324.07 347.25L324.07 309.33L324.07 309.33L33.96 309.33z" /></clipPath><clipPath id="145"><path id="" clip-rule="evenodd" transform="matrix(1 0 0 1 0 0)" d="M33.96 347.25L324.07 347.25L324.07 347.25L324.07 309.33L324.07 309.33L33.96 309.33z" /></clipPath><clipPath id="146"><path id="" clip-rule="evenodd" transform="matrix(1 0 0 1 0 0)" d="M33.96 347.25L324.07 347.25L324.07 347.25L324.07 309.33L324.07 309.33L33.96 309.33z" /></clipPath><clipPath id="147"><path id="" clip-rule="evenodd" transform="matrix(1 0 0 1 0 0)" d="M33.96 347.25L324.07 347.25L324.07 347.25L324.07 309.33L324.07 309.33L33.96 309.33z" /></clipPath><clipPath id="148"><path id="" clip-rule="evenodd" transform="matrix(1 0 0 1 0 0)" d="M33.96 347.25L324.07 347.25L324.07 347.25L324.07 309.33L324.07 309.33L33.96 309.33z" /></clipPath><clipPath id="149"><path id="" clip-rule="evenodd" transform="matrix(1 0 0 1 0 0)" d="M33.96 347.25L324.07 347.25L324.07 347.25L324.07 309.33L324.07 309.33L33.96 309.33z" /></clipPath><clipPath id="150"><path id="" clip-rule="evenodd" transform="matrix(1 0 0 1 0 0)" d="M33.96 347.25L324.07 347.25L324.07 347.25L324.07 309.33L324.07 309.33L33.96 309.33z" /></clipPath><clipPath id="151"><path id="" clip-rule="evenodd" transform="matrix(1 0 0 1 0 0)" d="M324.07 347.25L494.76 347.25L494.76 347.25L494.76 309.33L494.76 309.33L324.07 309.33z" /></clipPath><clipPath id="152"><path id="" clip-rule="evenodd" transform="matrix(1 0 0 1 0 0)" d="M324.07 347.25L494.76 347.25L494.76 347.25L494.76 309.33L494.76 309.33L324.07 309.33z" /></clipPath><clipPath id="153"><path id="" clip-rule="evenodd" transform="matrix(1 0 0 1 0 0)" d="M324.07 347.25L494.76 347.25L494.76 347.25L494.76 309.33L494.76 309.33L324.07 309.33z" /></clipPath><clipPath id="154"><path id="" clip-rule="evenodd" transform="matrix(1 0 0 1 0 0)" d="M324.07 347.25L494.76 347.25L494.76 347.25L494.76 309.33L494.76 309.33L324.07 309.33z" /></clipPath><clipPath id="155"><path id="" clip-rule="evenodd" transform="matrix(1 0 0 1 0 0)" d="M494.76 347.25L561.36 347.25L561.36 347.25L561.36 309.33L561.36 309.33L494.76 309.33z" /></clipPath><clipPath id="156"><path id="" clip-rule="evenodd" transform="matrix(1 0 0 1 0 0)" d="M494.76 347.25L561.36 347.25L561.36 347.25L561.36 309.33L561.36 309.33L494.76 309.33z" /></clipPath><clipPath id="157"><path id="" clip-rule="evenodd" transform="matrix(1 0 0 1 0 0)" d="M494.76 347.25L561.36 347.25L561.36 347.25L561.36 309.33L561.36 309.33L494.76 309.33z" /></clipPath><clipPath id="158"><path id="" clip-rule="evenodd" transform="matrix(1 0 0 1 0 0)" d="M494.76 347.25L561.36 347.25L561.36 347.25L561.36 309.33L561.36 309.33L494.76 309.33z" /></clipPath><clipPath id="159"><path id="" clip-rule="evenodd" transform="matrix(1 0 0 1 0 0)" d="M494.76 347.25L561.36 347.25L561.36 347.25L561.36 309.33L561.36 309.33L494.76 309.33z" /></clipPath><clipPath id="160"><path id="" clip-rule="evenodd" transform="matrix(1 0 0 1 0 0)" d="M494.76 347.25L561.36 347.25L561.36 347.25L561.36 309.33L561.36 309.33L494.76 309.33z" /></clipPath><clipPath id="161"><path id="" clip-rule="evenodd" transform="matrix(1 0 0 1 0 0)" d="M494.76 347.25L561.36 347.25L561.36 347.25L561.36 309.33L561.36 309.33L494.76 309.33z" /></clipPath><clipPath id="162"><path id="" clip-rule="evenodd" transform="matrix(1 0 0 1 0 0)" d="M494.76 347.25L561.36 347.25L561.36 347.25L561.36 309.33L561.36 309.33L494.76 309.33z" /></clipPath><clipPath id="163"><path id="" clip-rule="evenodd" transform="matrix(1 0 0 1 0 0)" d="M33.96 373.65L324.07 373.65L324.07 373.65L324.07 347.25L324.07 347.25L33.96 347.25z" /></clipPath><clipPath id="164"><path id="" clip-rule="evenodd" transform="matrix(1 0 0 1 0 0)" d="M33.96 373.65L324.07 373.65L324.07 373.65L324.07 347.25L324.07 347.25L33.96 347.25z" /></clipPath><clipPath id="165"><path id="" clip-rule="evenodd" transform="matrix(1 0 0 1 0 0)" d="M33.96 373.65L324.07 373.65L324.07 373.65L324.07 347.25L324.07 347.25L33.96 347.25z" /></clipPath><clipPath id="166"><path id="" clip-rule="evenodd" transform="matrix(1 0 0 1 0 0)" d="M33.96 373.65L324.07 373.65L324.07 373.65L324.07 347.25L324.07 347.25L33.96 347.25z" /></clipPath><clipPath id="167"><path id="" clip-rule="evenodd" transform="matrix(1 0 0 1 0 0)" d="M33.96 373.65L324.07 373.65L324.07 373.65L324.07 347.25L324.07 347.25L33.96 347.25z" /></clipPath><clipPath id="168"><path id="" clip-rule="evenodd" transform="matrix(1 0 0 1 0 0)" d="M33.96 373.65L324.07 373.65L324.07 373.65L324.07 347.25L324.07 347.25L33.96 347.25z" /></clipPath><clipPath id="169"><path id="" clip-rule="evenodd" transform="matrix(1 0 0 1 0 0)" d="M33.96 373.65L324.07 373.65L324.07 373.65L324.07 347.25L324.07 347.25L33.96 347.25z" /></clipPath><clipPath id="170"><path id="" clip-rule="evenodd" transform="matrix(1 0 0 1 0 0)" d="M33.96 373.65L324.07 373.65L324.07 373.65L324.07 347.25L324.07 347.25L33.96 347.25z" /></clipPath><clipPath id="171"><path id="" clip-rule="evenodd" transform="matrix(1 0 0 1 0 0)" d="M324.07 373.65L494.76 373.65L494.76 373.65L494.76 347.25L494.76 347.25L324.07 347.25z" /></clipPath><clipPath id="172"><path id="" clip-rule="evenodd" transform="matrix(1 0 0 1 0 0)" d="M324.07 373.65L494.76 373.65L494.76 373.65L494.76 347.25L494.76 347.25L324.07 347.25z" /></clipPath><clipPath id="173"><path id="" clip-rule="evenodd" transform="matrix(1 0 0 1 0 0)" d="M324.07 373.65L494.76 373.65L494.76 373.65L494.76 347.25L494.76 347.25L324.07 347.25z" /></clipPath><clipPath id="174"><path id="" clip-rule="evenodd" transform="matrix(1 0 0 1 0 0)" d="M494.76 373.65L561.36 373.65L561.36 373.65L561.36 347.25L561.36 347.25L494.76 347.25z" /></clipPath><clipPath id="175"><path id="" clip-rule="evenodd" transform="matrix(1 0 0 1 0 0)" d="M494.76 373.65L561.36 373.65L561.36 373.65L561.36 347.25L561.36 347.25L494.76 347.25z" /></clipPath><clipPath id="176"><path id="" clip-rule="evenodd" transform="matrix(1 0 0 1 0 0)" d="M494.76 373.65L561.36 373.65L561.36 373.65L561.36 347.25L561.36 347.25L494.76 347.25z" /></clipPath><clipPath id="177"><path id="" clip-rule="evenodd" transform="matrix(1 0 0 1 0 0)" d="M494.76 373.65L561.36 373.65L561.36 373.65L561.36 347.25L561.36 347.25L494.76 347.25z" /></clipPath><clipPath id="178"><path id="" clip-rule="evenodd" transform="matrix(1 0 0 1 0 0)" d="M494.76 373.65L561.36 373.65L561.36 373.65L561.36 347.25L561.36 347.25L494.76 347.25z" /></clipPath><clipPath id="179"><path id="" clip-rule="evenodd" transform="matrix(1 0 0 1 0 0)" d="M494.76 373.65L561.36 373.65L561.36 373.65L561.36 347.25L561.36 347.25L494.76 347.25z" /></clipPath><clipPath id="180"><path id="" clip-rule="evenodd" transform="matrix(1 0 0 1 0 0)" d="M33.96 400.07L324.07 400.07L324.07 400.07L324.07 373.646L324.07 373.646L33.96 373.646z" /></clipPath><clipPath id="181"><path id="" clip-rule="evenodd" transform="matrix(1 0 0 1 0 0)" d="M33.96 400.07L324.07 400.07L324.07 400.07L324.07 373.646L324.07 373.646L33.96 373.646z" /></clipPath><clipPath id="182"><path id="" clip-rule="evenodd" transform="matrix(1 0 0 1 0 0)" d="M33.96 400.07L324.07 400.07L324.07 400.07L324.07 373.646L324.07 373.646L33.96 373.646z" /></clipPath><clipPath id="183"><path id="" clip-rule="evenodd" transform="matrix(1 0 0 1 0 0)" d="M33.96 400.07L324.07 400.07L324.07 400.07L324.07 373.646L324.07 373.646L33.96 373.646z" /></clipPath><clipPath id="184"><path id="" clip-rule="evenodd" transform="matrix(1 0 0 1 0 0)" d="M33.96 400.07L324.07 400.07L324.07 400.07L324.07 373.646L324.07 373.646L33.96 373.646z" /></clipPath><clipPath id="185"><path id="" clip-rule="evenodd" transform="matrix(1 0 0 1 0 0)" d="M33.96 400.07L324.07 400.07L324.07 400.07L324.07 373.646L324.07 373.646L33.96 373.646z" /></clipPath><clipPath id="186"><path id="" clip-rule="evenodd" transform="matrix(1 0 0 1 0 0)" d="M324.07 400.07L494.76 400.07L494.76 400.07L494.76 373.646L494.76 373.646L324.07 373.646z" /></clipPath><clipPath id="187"><path id="" clip-rule="evenodd" transform="matrix(1 0 0 1 0 0)" d="M324.07 400.07L494.76 400.07L494.76 400.07L494.76 373.646L494.76 373.646L324.07 373.646z" /></clipPath><clipPath id="188"><path id="" clip-rule="evenodd" transform="matrix(1 0 0 1 0 0)" d="M494.76 400.07L561.36 400.07L561.36 400.07L561.36 373.646L561.36 373.646L494.76 373.646z" /></clipPath><clipPath id="189"><path id="" clip-rule="evenodd" transform="matrix(1 0 0 1 0 0)" d="M494.76 400.07L561.36 400.07L561.36 400.07L561.36 373.646L561.36 373.646L494.76 373.646z" /></clipPath><clipPath id="190"><path id="" clip-rule="evenodd" transform="matrix(1 0 0 1 0 0)" d="M494.76 400.07L561.36 400.07L561.36 400.07L561.36 373.646L561.36 373.646L494.76 373.646z" /></clipPath><clipPath id="191"><path id="" clip-rule="evenodd" transform="matrix(1 0 0 1 0 0)" d="M494.76 400.07L561.36 400.07L561.36 400.07L561.36 373.646L561.36 373.646L494.76 373.646z" /></clipPath><clipPath id="192"><path id="" clip-rule="evenodd" transform="matrix(1 0 0 1 0 0)" d="M494.76 400.07L561.36 400.07L561.36 400.07L561.36 373.646L561.36 373.646L494.76 373.646z" /></clipPath><clipPath id="193"><path id="" clip-rule="evenodd" transform="matrix(1 0 0 1 0 0)" d="M494.76 400.07L561.36 400.07L561.36 400.07L561.36 373.646L561.36 373.646L494.76 373.646z" /></clipPath><clipPath id="194"><path id="" clip-rule="evenodd" transform="matrix(1 0 0 1 0 0)" d="M33.96 426.47L324.07 426.47L324.07 426.47L324.07 400.07L324.07 400.07L33.96 400.07z" /></clipPath><clipPath id="195"><path id="" clip-rule="evenodd" transform="matrix(1 0 0 1 0 0)" d="M33.96 426.47L324.07 426.47L324.07 426.47L324.07 400.07L324.07 400.07L33.96 400.07z" /></clipPath><clipPath id="196"><path id="" clip-rule="evenodd" transform="matrix(1 0 0 1 0 0)" d="M33.96 426.47L324.07 426.47L324.07 426.47L324.07 400.07L324.07 400.07L33.96 400.07z" /></clipPath><clipPath id="197"><path id="" clip-rule="evenodd" transform="matrix(1 0 0 1 0 0)" d="M33.96 426.47L324.07 426.47L324.07 426.47L324.07 400.07L324.07 400.07L33.96 400.07z" /></clipPath><clipPath id="198"><path id="" clip-rule="evenodd" transform="matrix(1 0 0 1 0 0)" d="M33.96 426.47L324.07 426.47L324.07 426.47L324.07 400.07L324.07 400.07L33.96 400.07z" /></clipPath><clipPath id="199"><path id="" clip-rule="evenodd" transform="matrix(1 0 0 1 0 0)" d="M33.96 426.47L324.07 426.47L324.07 426.47L324.07 400.07L324.07 400.07L33.96 400.07z" /></clipPath><clipPath id="200"><path id="" clip-rule="evenodd" transform="matrix(1 0 0 1 0 0)" d="M33.96 426.47L324.07 426.47L324.07 426.47L324.07 400.07L324.07 400.07L33.96 400.07z" /></clipPath><clipPath id="201"><path id="" clip-rule="evenodd" transform="matrix(1 0 0 1 0 0)" d="M33.96 426.47L324.07 426.47L324.07 426.47L324.07 400.07L324.07 400.07L33.96 400.07z" /></clipPath><clipPath id="202"><path id="" clip-rule="evenodd" transform="matrix(1 0 0 1 0 0)" d="M33.96 426.47L324.07 426.47L324.07 426.47L324.07 400.07L324.07 400.07L33.96 400.07z" /></clipPath><clipPath id="203"><path id="" clip-rule="evenodd" transform="matrix(1 0 0 1 0 0)" d="M324.07 426.47L494.76 426.47L494.76 426.47L494.76 400.07L494.76 400.07L324.07 400.07z" /></clipPath><clipPath id="204"><path id="" clip-rule="evenodd" transform="matrix(1 0 0 1 0 0)" d="M324.07 426.47L494.76 426.47L494.76 426.47L494.76 400.07L494.76 400.07L324.07 400.07z" /></clipPath><clipPath id="205"><path id="" clip-rule="evenodd" transform="matrix(1 0 0 1 0 0)" d="M324.07 426.47L494.76 426.47L494.76 426.47L494.76 400.07L494.76 400.07L324.07 400.07z" /></clipPath><clipPath id="206"><path id="" clip-rule="evenodd" transform="matrix(1 0 0 1 0 0)" d="M324.07 426.47L494.76 426.47L494.76 426.47L494.76 400.07L494.76 400.07L324.07 400.07z" /></clipPath><clipPath id="207"><path id="" clip-rule="evenodd" transform="matrix(1 0 0 1 0 0)" d="M494.76 426.47L561.36 426.47L561.36 426.47L561.36 400.07L561.36 400.07L494.76 400.07z" /></clipPath><clipPath id="208"><path id="" clip-rule="evenodd" transform="matrix(1 0 0 1 0 0)" d="M494.76 426.47L561.36 426.47L561.36 426.47L561.36 400.07L561.36 400.07L494.76 400.07z" /></clipPath><clipPath id="209"><path id="" clip-rule="evenodd" transform="matrix(1 0 0 1 0 0)" d="M494.76 426.47L561.36 426.47L561.36 426.47L561.36 400.07L561.36 400.07L494.76 400.07z" /></clipPath><clipPath id="210"><path id="" clip-rule="evenodd" transform="matrix(1 0 0 1 0 0)" d="M494.76 426.47L561.36 426.47L561.36 426.47L561.36 400.07L561.36 400.07L494.76 400.07z" /></clipPath><clipPath id="211"><path id="" clip-rule="evenodd" transform="matrix(1 0 0 1 0 0)" d="M494.76 426.47L561.36 426.47L561.36 426.47L561.36 400.07L561.36 400.07L494.76 400.07z" /></clipPath><clipPath id="212"><path id="" clip-rule="evenodd" transform="matrix(1 0 0 1 0 0)" d="M494.76 426.47L561.36 426.47L561.36 426.47L561.36 400.07L561.36 400.07L494.76 400.07z" /></clipPath><clipPath id="213"><path id="" clip-rule="evenodd" transform="matrix(1 0 0 1 0 0)" d="M494.76 426.47L561.36 426.47L561.36 426.47L561.36 400.07L561.36 400.07L494.76 400.07z" /></clipPath><clipPath id="214"><path id="" clip-rule="evenodd" transform="matrix(1 0 0 1 0 0)" d="M494.76 426.47L561.36 426.47L561.36 426.47L561.36 400.07L561.36 400.07L494.76 400.07z" /></clipPath><clipPath id="215"><path id="" clip-rule="evenodd" transform="matrix(1 0 0 1 0 0)" d="M33.96 504.71L561.36 504.71L561.36 504.71L561.36 426.47L561.36 426.47L33.96 426.47z" /></clipPath><clipPath id="216"><path id="" clip-rule="evenodd" transform="matrix(1 0 0 1 0 0)" d="M33.96 504.71L561.36 504.71L561.36 504.71L561.36 426.47L561.36 426.47L33.96 426.47z" /></clipPath><clipPath id="217"><path id="" clip-rule="evenodd" transform="matrix(1 0 0 1 0 0)" d="M33.96 504.71L561.36 504.71L561.36 504.71L561.36 426.47L561.36 426.47L33.96 426.47z" /></clipPath><clipPath id="218"><path id="" clip-rule="evenodd" transform="matrix(1 0 0 1 0 0)" d="M33.96 504.71L561.36 504.71L561.36 504.71L561.36 426.47L561.36 426.47L33.96 426.47z" /></clipPath><clipPath id="219"><path id="" clip-rule="evenodd" transform="matrix(1 0 0 1 0 0)" d="M38.385 505.07L565.785 505.07L565.785 505.07L565.785 426.83L565.785 426.83L38.385 426.83z" /></clipPath><clipPath id="220"><path id="" clip-rule="evenodd" transform="matrix(1 0 0 1 0 0)" d="M35.745 489.95L435.445 489.95L435.445 489.95L435.445 459.47L435.445 459.47L35.745 459.47z" /></clipPath><clipPath id="221"><path id="" clip-rule="evenodd" transform="matrix(1 0 0 1 0 0)" d="M38.68 505.18L565.983 505.18L565.983 505.18L565.983 426.94L565.983 426.94L38.68 426.94z" /></clipPath><clipPath id="222"><path id="" clip-rule="evenodd" transform="matrix(1 0 0 1 0 0)" d="M36.04 490.06L435.666 490.06L435.666 490.06L435.666 459.58L435.666 459.58L36.04 459.58z" /></clipPath><clipPath id="223"><path id="" clip-rule="evenodd" transform="matrix(1 0 0 1 0 0)" d="M38.526 504.943L565.926 504.943L565.926 504.943L565.926 426.703L565.926 426.703L38.526 426.703z" /></clipPath><clipPath id="224"><path id="" clip-rule="evenodd" transform="matrix(1 0 0 1 0 0)" d="M35.886 489.823L435.586 489.823L435.586 489.823L435.586 459.343L435.586 459.343L35.886 459.343z" /></clipPath><clipPath id="225"><path id="" clip-rule="evenodd" transform="matrix(1 0 0 1 0 0)" d="M38.708 505.07L566.108 505.07L566.108 505.07L566.108 426.83L566.108 426.83L38.708 426.83z" /></clipPath><clipPath id="226"><path id="" clip-rule="evenodd" transform="matrix(1 0 0 1 0 0)" d="M36.068 489.95L435.768 489.95L435.768 489.95L435.768 459.47L435.768 459.47L36.068 459.47z" /></clipPath><clipPath id="227"><path id="" clip-rule="evenodd" transform="matrix(1 0 0 1 0 0)" d="M38.365 505.015L565.765 505.015L565.765 505.015L565.765 426.775L565.765 426.775L38.365 426.775z" /></clipPath><clipPath id="228"><path id="" clip-rule="evenodd" transform="matrix(1 0 0 1 0 0)" d="M35.725 489.895L435.425 489.895L435.425 489.895L435.425 459.415L435.425 459.415L35.725 459.415z" /></clipPath><clipPath id="229"><path id="" clip-rule="evenodd" transform="matrix(1 0 0 1 0 0)" d="M38.391 505.18L565.791 505.18L565.791 505.18L565.791 426.94L565.791 426.94L38.391 426.94z" /></clipPath><clipPath id="230"><path id="" clip-rule="evenodd" transform="matrix(1 0 0 1 0 0)" d="M35.751 490.06L435.451 490.06L435.451 490.06L435.451 459.58L435.451 459.58L35.751 459.58z" /></clipPath><clipPath id="231"><path id="" clip-rule="evenodd" transform="matrix(1 0 0 1 0 0)" d="M38.667 505.159L566.067 505.159L566.067 505.159L566.067 426.919L566.067 426.919L38.667 426.919z" /></clipPath><clipPath id="232"><path id="" clip-rule="evenodd" transform="matrix(1 0 0 1 0 0)" d="M36.027 490.039L435.727 490.039L435.727 490.039L435.727 459.559L435.727 459.559L36.027 459.559z" /></clipPath><clipPath id="233"><path id="" clip-rule="evenodd" transform="matrix(1 0 0 1 0 0)" d="M38.491 505.18L565.795 505.18L565.795 505.18L565.795 426.94L565.795 426.94L38.491 426.94z" /></clipPath><clipPath id="234"><path id="" clip-rule="evenodd" transform="matrix(1 0 0 1 0 0)" d="M35.851 490.06L435.478 490.06L435.478 490.06L435.478 459.58L435.478 459.58L35.851 459.58z" /></clipPath><clipPath id="235"><path id="" clip-rule="evenodd" transform="matrix(1 0 0 1 0 0)" d="M38.64 505.07L566.04 505.07L566.04 505.07L566.04 426.83L566.04 426.83L38.64 426.83z" /></clipPath><clipPath id="236"><path id="" clip-rule="evenodd" transform="matrix(1 0 0 1 0 0)" d="M36 489.95L435.7 489.95L435.7 489.95L435.7 459.47L435.7 459.47L36 459.47z" /></clipPath><clipPath id="237"><path id="" clip-rule="evenodd" transform="matrix(1 0 0 1 0 0)" d="M38.544 504.943L565.944 504.943L565.944 504.943L565.944 426.703L565.944 426.703L38.544 426.703z" /></clipPath><clipPath id="238"><path id="" clip-rule="evenodd" transform="matrix(1 0 0 1 0 0)" d="M35.904 489.823L435.604 489.823L435.604 489.823L435.604 459.343L435.604 459.343L35.904 459.343z" /></clipPath><clipPath id="239"><path id="" clip-rule="evenodd" transform="matrix(1 0 0 1 0 0)" d="M38.489 505.18L565.79 505.18L565.79 505.18L565.79 426.94L565.79 426.94L38.489 426.94z" /></clipPath><clipPath id="240"><path id="" clip-rule="evenodd" transform="matrix(1 0 0 1 0 0)" d="M35.849 490.06L435.474 490.06L435.474 490.06L435.474 459.58L435.474 459.58L35.849 459.58z" /></clipPath><clipPath id="241"><path id="" clip-rule="evenodd" transform="matrix(1 0 0 1 0 0)" d="M33.96 504.71L561.36 504.71L561.36 504.71L561.36 426.47L561.36 426.47L33.96 426.47z" /></clipPath><clipPath id="242"><path id="" clip-rule="evenodd" transform="matrix(1 0 0 1 0 0)" d="M431.02 489.59L564 489.59L564 489.59L564 459.11L564 459.11L431.02 459.11z" /></clipPath><clipPath id="243"><path id="" clip-rule="evenodd" transform="matrix(1 0 0 1 0 0)" d="M33.96 504.71L561.36 504.71L561.36 504.71L561.36 426.47L561.36 426.47L33.96 426.47z" /></clipPath><clipPath id="244"><path id="" clip-rule="evenodd" transform="matrix(1 0 0 1 0 0)" d="M431.02 489.59L564 489.59L564 489.59L564 459.11L564 459.11L431.02 459.11z" /></clipPath><clipPath id="245"><path id="" clip-rule="evenodd" transform="matrix(1 0 0 1 0 0)" d="M33.96 504.71L561.36 504.71L561.36 504.71L561.36 426.47L561.36 426.47L33.96 426.47z" /></clipPath><clipPath id="246"><path id="" clip-rule="evenodd" transform="matrix(1 0 0 1 0 0)" d="M431.02 489.59L564 489.59L564 489.59L564 459.11L564 459.11L431.02 459.11z" /></clipPath><clipPath id="247"><path id="" clip-rule="evenodd" transform="matrix(1 0 0 1 0 0)" d="M33.96 504.71L561.36 504.71L561.36 504.71L561.36 426.47L561.36 426.47L33.96 426.47z" /></clipPath><clipPath id="248"><path id="" clip-rule="evenodd" transform="matrix(1 0 0 1 0 0)" d="M431.02 489.59L564 489.59L564 489.59L564 459.11L564 459.11L431.02 459.11z" /></clipPath><clipPath id="249"><path id="" clip-rule="evenodd" transform="matrix(1 0 0 1 0 0)" d="M33.96 504.71L561.36 504.71L561.36 504.71L561.36 426.47L561.36 426.47L33.96 426.47z" /></clipPath><clipPath id="250"><path id="" clip-rule="evenodd" transform="matrix(1 0 0 1 0 0)" d="M431.02 489.59L564 489.59L564 489.59L564 459.11L564 459.11L431.02 459.11z" /></clipPath><clipPath id="251"><path id="" clip-rule="evenodd" transform="matrix(1 0 0 1 0 0)" d="M33.96 504.71L561.36 504.71L561.36 504.71L561.36 426.47L561.36 426.47L33.96 426.47z" /></clipPath><clipPath id="252"><path id="" clip-rule="evenodd" transform="matrix(1 0 0 1 0 0)" d="M431.02 489.59L564 489.59L564 489.59L564 459.11L564 459.11L431.02 459.11z" /></clipPath><clipPath id="253"><path id="" clip-rule="evenodd" transform="matrix(1 0 0 1 0 0)" d="M33.96 504.71L561.36 504.71L561.36 504.71L561.36 426.47L561.36 426.47L33.96 426.47z" /></clipPath><clipPath id="254"><path id="" clip-rule="evenodd" transform="matrix(1 0 0 1 0 0)" d="M431.02 489.59L564 489.59L564 489.59L564 459.11L564 459.11L431.02 459.11z" /></clipPath><clipPath id="255"><path id="" clip-rule="evenodd" transform="matrix(1 0 0 1 0 0)" d="M33.96 504.71L561.36 504.71L561.36 504.71L561.36 426.47L561.36 426.47L33.96 426.47z" /></clipPath><clipPath id="256"><path id="" clip-rule="evenodd" transform="matrix(1 0 0 1 0 0)" d="M431.02 489.59L564 489.59L564 489.59L564 459.11L564 459.11L431.02 459.11z" /></clipPath><clipPath id="257"><path id="" clip-rule="evenodd" transform="matrix(1 0 0 1 0 0)" d="M33.96 504.71L561.36 504.71L561.36 504.71L561.36 426.47L561.36 426.47L33.96 426.47z" /></clipPath><clipPath id="258"><path id="" clip-rule="evenodd" transform="matrix(1 0 0 1 0 0)" d="M33.96 504.71L561.36 504.71L561.36 504.71L561.36 426.47L561.36 426.47L33.96 426.47z" /></clipPath><clipPath id="259"><path id="" clip-rule="evenodd" transform="matrix(1 0 0 1 0 0)" d="M33.96 504.71L561.36 504.71L561.36 504.71L561.36 426.47L561.36 426.47L33.96 426.47z" /></clipPath><clipPath id="260"><path id="" clip-rule="evenodd" transform="matrix(1 0 0 1 0 0)" d="M33.96 504.71L561.36 504.71L561.36 504.71L561.36 426.47L561.36 426.47L33.96 426.47z" /></clipPath><clipPath id="261"><path id="" clip-rule="evenodd" transform="matrix(1 0 0 1 0 0)" d="M33.96 504.71L561.36 504.71L561.36 504.71L561.36 426.47L561.36 426.47L33.96 426.47z" /></clipPath><clipPath id="262"><path id="" clip-rule="evenodd" transform="matrix(1 0 0 1 0 0)" d="M33.96 504.71L561.36 504.71L561.36 504.71L561.36 426.47L561.36 426.47L33.96 426.47z" /></clipPath><clipPath id="263"><path id="" clip-rule="evenodd" transform="matrix(1 0 0 1 0 0)" d="M33.96 504.71L561.36 504.71L561.36 504.71L561.36 426.47L561.36 426.47L33.96 426.47z" /></clipPath><clipPath id="264"><path id="" clip-rule="evenodd" transform="matrix(1 0 0 1 0 0)" d="M33.96 504.71L561.36 504.71L561.36 504.71L561.36 426.47L561.36 426.47L33.96 426.47z" /></clipPath><clipPath id="265"><path id="" clip-rule="evenodd" transform="matrix(1 0 0 1 0 0)" d="M33.96 504.71L561.36 504.71L561.36 504.71L561.36 426.47L561.36 426.47L33.96 426.47z" /></clipPath><clipPath id="266"><path id="" clip-rule="evenodd" transform="matrix(1 0 0 1 0 0)" d="M33.96 504.71L561.36 504.71L561.36 504.71L561.36 426.47L561.36 426.47L33.96 426.47z" /></clipPath><clipPath id="267"><path id="" clip-rule="evenodd" transform="matrix(1 0 0 1 0 0)" d="M33.96 504.71L561.36 504.71L561.36 504.71L561.36 426.47L561.36 426.47L33.96 426.47z" /></clipPath><clipPath id="268"><path id="" clip-rule="evenodd" transform="matrix(1 0 0 1 0 0)" d="M33.96 504.71L561.36 504.71L561.36 504.71L561.36 426.47L561.36 426.47L33.96 426.47z" /></clipPath><clipPath id="269"><path id="" clip-rule="evenodd" transform="matrix(1 0 0 1 0 0)" d="M33.96 504.71L561.36 504.71L561.36 504.71L561.36 426.47L561.36 426.47L33.96 426.47z" /></clipPath><clipPath id="270"><path id="" clip-rule="evenodd" transform="matrix(1 0 0 1 0 0)" d="M33.96 504.71L561.36 504.71L561.36 504.71L561.36 426.47L561.36 426.47L33.96 426.47z" /></clipPath><clipPath id="271"><path id="" clip-rule="evenodd" transform="matrix(1 0 0 1 0 0)" d="M33.96 540.83L561.36 540.83L561.36 540.83L561.36 504.71L561.36 504.71L33.96 504.71z" /></clipPath><clipPath id="272"><path id="" clip-rule="evenodd" transform="matrix(1 0 0 1 0 0)" d="M33.96 540.83L561.36 540.83L561.36 540.83L561.36 504.71L561.36 504.71L33.96 504.71z" /></clipPath><clipPath id="273"><path id="" clip-rule="evenodd" transform="matrix(1 0 0 1 0 0)" d="M33.96 540.83L561.36 540.83L561.36 540.83L561.36 504.71L561.36 504.71L33.96 504.71z" /></clipPath><clipPath id="274"><path id="" clip-rule="evenodd" transform="matrix(1 0 0 1 0 0)" d="M33.96 540.83L561.36 540.83L561.36 540.83L561.36 504.71L561.36 504.71L33.96 504.71z" /></clipPath><clipPath id="275"><path id="" clip-rule="evenodd" transform="matrix(1 0 0 1 0 0)" d="M33.96 540.83L561.36 540.83L561.36 540.83L561.36 504.71L561.36 504.71L33.96 504.71z" /></clipPath><clipPath id="276"><path id="" clip-rule="evenodd" transform="matrix(1 0 0 1 0 0)" d="M33.96 540.83L561.36 540.83L561.36 540.83L561.36 504.71L561.36 504.71L33.96 504.71z" /></clipPath><clipPath id="277"><path id="" clip-rule="evenodd" transform="matrix(1 0 0 1 0 0)" d="M33.96 540.83L561.36 540.83L561.36 540.83L561.36 504.71L561.36 504.71L33.96 504.71z" /></clipPath><clipPath id="278"><path id="" clip-rule="evenodd" transform="matrix(1 0 0 1 0 0)" d="M33.96 540.83L561.36 540.83L561.36 540.83L561.36 504.71L561.36 504.71L33.96 504.71z" /></clipPath><clipPath id="279"><path id="" clip-rule="evenodd" transform="matrix(1 0 0 1 0 0)" d="M33.96 540.83L561.36 540.83L561.36 540.83L561.36 504.71L561.36 504.71L33.96 504.71z" /></clipPath><clipPath id="280"><path id="" clip-rule="evenodd" transform="matrix(1 0 0 1 0 0)" d="M33.96 540.83L561.36 540.83L561.36 540.83L561.36 504.71L561.36 504.71L33.96 504.71z" /></clipPath><clipPath id="281"><path id="" clip-rule="evenodd" transform="matrix(1 0 0 1 0 0)" d="M33.96 540.83L561.36 540.83L561.36 540.83L561.36 504.71L561.36 504.71L33.96 504.71z" /></clipPath><clipPath id="282"><path id="" clip-rule="evenodd" transform="matrix(1 0 0 1 0 0)" d="M33.96 540.83L561.36 540.83L561.36 540.83L561.36 504.71L561.36 504.71L33.96 504.71z" /></clipPath><clipPath id="283"><path id="" clip-rule="evenodd" transform="matrix(1 0 0 1 0 0)" d="M33.96 540.83L561.36 540.83L561.36 540.83L561.36 504.71L561.36 504.71L33.96 504.71z" /></clipPath><clipPath id="284"><path id="" clip-rule="evenodd" transform="matrix(1 0 0 1 0 0)" d="M33.96 540.83L561.36 540.83L561.36 540.83L561.36 504.71L561.36 504.71L33.96 504.71z" /></clipPath><clipPath id="285"><path id="" clip-rule="evenodd" transform="matrix(1 0 0 1 0 0)" d="M33.96 540.83L561.36 540.83L561.36 540.83L561.36 504.71L561.36 504.71L33.96 504.71z" /></clipPath><clipPath id="286"><path id="" clip-rule="evenodd" transform="matrix(1 0 0 1 0 0)" d="M33.96 540.83L561.36 540.83L561.36 540.83L561.36 504.71L561.36 504.71L33.96 504.71z" /></clipPath><clipPath id="287"><path id="" clip-rule="evenodd" transform="matrix(1 0 0 1 0 0)" d="M33.96 540.83L561.36 540.83L561.36 540.83L561.36 504.71L561.36 504.71L33.96 504.71z" /></clipPath><clipPath id="288"><path id="" clip-rule="evenodd" transform="matrix(1 0 0 1 0 0)" d="M33.96 540.83L561.36 540.83L561.36 540.83L561.36 504.71L561.36 504.71L33.96 504.71z" /></clipPath><clipPath id="289"><path id="" clip-rule="evenodd" transform="matrix(1 0 0 1 0 0)" d="M33.96 563.9L561.36 563.9L561.36 563.9L561.36 540.836L561.36 540.836L33.96 540.836z" /></clipPath><clipPath id="290"><path id="" clip-rule="evenodd" transform="matrix(1 0 0 1 0 0)" d="M33.96 563.9L561.36 563.9L561.36 563.9L561.36 540.836L561.36 540.836L33.96 540.836z" /></clipPath><clipPath id="291"><path id="" clip-rule="evenodd" transform="matrix(1 0 0 1 0 0)" d="M33.96 563.9L561.36 563.9L561.36 563.9L561.36 540.836L561.36 540.836L33.96 540.836z" /></clipPath><clipPath id="292"><path id="" clip-rule="evenodd" transform="matrix(1 0 0 1 0 0)" d="M33.96 563.9L561.36 563.9L561.36 563.9L561.36 540.836L561.36 540.836L33.96 540.836z" /></clipPath><clipPath id="293"><path id="" clip-rule="evenodd" transform="matrix(1 0 0 1 0 0)" d="M33.96 563.9L561.36 563.9L561.36 563.9L561.36 540.836L561.36 540.836L33.96 540.836z" /></clipPath><clipPath id="294"><path id="" clip-rule="evenodd" transform="matrix(1 0 0 1 0 0)" d="M33.96 563.9L561.36 563.9L561.36 563.9L561.36 540.836L561.36 540.836L33.96 540.836z" /></clipPath><clipPath id="295"><path id="" clip-rule="evenodd" transform="matrix(1 0 0 1 0 0)" d="M33.96 563.9L561.36 563.9L561.36 563.9L561.36 540.836L561.36 540.836L33.96 540.836z" /></clipPath><clipPath id="296"><path id="" clip-rule="evenodd" transform="matrix(1 0 0 1 0 0)" d="M33.96 563.9L561.36 563.9L561.36 563.9L561.36 540.836L561.36 540.836L33.96 540.836z" /></clipPath><clipPath id="297"><path id="" clip-rule="evenodd" transform="matrix(1 0 0 1 0 0)" d="M33.96 563.9L561.36 563.9L561.36 563.9L561.36 540.836L561.36 540.836L33.96 540.836z" /></clipPath><clipPath id="298"><path id="" clip-rule="evenodd" transform="matrix(1 0 0 1 0 0)" d="M33.96 563.9L561.36 563.9L561.36 563.9L561.36 540.836L561.36 540.836L33.96 540.836z" /></clipPath><clipPath id="299"><path id="" clip-rule="evenodd" transform="matrix(1 0 0 1 0 0)" d="M33.96 563.9L561.36 563.9L561.36 563.9L561.36 540.836L561.36 540.836L33.96 540.836z" /></clipPath><clipPath id="300"><path id="" clip-rule="evenodd" transform="matrix(1 0 0 1 0 0)" d="M33.96 563.9L561.36 563.9L561.36 563.9L561.36 540.836L561.36 540.836L33.96 540.836z" /></clipPath><clipPath id="301"><path id="" clip-rule="evenodd" transform="matrix(1 0 0 1 0 0)" d="M33.96 563.9L561.36 563.9L561.36 563.9L561.36 540.836L561.36 540.836L33.96 540.836z" /></clipPath><clipPath id="302"><path id="" clip-rule="evenodd" transform="matrix(1 0 0 1 0 0)" d="M33.96 563.9L561.36 563.9L561.36 563.9L561.36 540.836L561.36 540.836L33.96 540.836z" /></clipPath><clipPath id="303"><path id="" clip-rule="evenodd" transform="matrix(1 0 0 1 0 0)" d="M33.96 563.9L561.36 563.9L561.36 563.9L561.36 540.836L561.36 540.836L33.96 540.836z" /></clipPath><clipPath id="304"><path id="" clip-rule="evenodd" transform="matrix(1 0 0 1 0 0)" d="M33.96 563.9L561.36 563.9L561.36 563.9L561.36 540.836L561.36 540.836L33.96 540.836z" /></clipPath><clipPath id="305"><path id="" clip-rule="evenodd" transform="matrix(1 0 0 1 0 0)" d="M33.96 563.9L561.36 563.9L561.36 563.9L561.36 540.836L561.36 540.836L33.96 540.836z" /></clipPath><clipPath id="306"><path id="" clip-rule="evenodd" transform="matrix(1 0 0 1 0 0)" d="M33.96 575.18L561.36 575.18L561.36 575.18L561.36 563.9L561.36 563.9L33.96 563.9z" /></clipPath><clipPath id="307"><path id="" clip-rule="evenodd" transform="matrix(1 0 0 1 0 0)" d="M33.96 591.5L561.36 591.5L561.36 591.5L561.36 575.18L561.36 575.18L33.96 575.18z" /></clipPath><clipPath id="308"><path id="" clip-rule="evenodd" transform="matrix(1 0 0 1 0 0)" d="M33.96 591.5L561.36 591.5L561.36 591.5L561.36 575.18L561.36 575.18L33.96 575.18z" /></clipPath><clipPath id="309"><path id="" clip-rule="evenodd" transform="matrix(1 0 0 1 0 0)" d="M33.96 605.78L36 605.78L36 605.78L36 592.22L36 592.22L33.96 592.22z" /></clipPath><clipPath id="310"><path id="" clip-rule="evenodd" transform="matrix(1 0 0 1 0 0)" d="M36 605.78L561.36 605.78L561.36 605.78L561.36 592.22L561.36 592.22L36 592.22z" /></clipPath><clipPath id="311"><path id="" clip-rule="evenodd" transform="matrix(1 0 0 1 0 0)" d="M36 605.78L561.36 605.78L561.36 605.78L561.36 592.22L561.36 592.22L36 592.22z" /></clipPath><clipPath id="312"><path id="" clip-rule="evenodd" transform="matrix(1 0 0 1 0 0)" d="M36 605.78L561.36 605.78L561.36 605.78L561.36 592.22L561.36 592.22L36 592.22z" /></clipPath><clipPath id="313"><path id="" clip-rule="evenodd" transform="matrix(1 0 0 1 0 0)" d="M36 605.78L561.36 605.78L561.36 605.78L561.36 592.22L561.36 592.22L36 592.22z" /></clipPath><clipPath id="314"><path id="" clip-rule="evenodd" transform="matrix(1 0 0 1 0 0)" d="M36 605.78L561.36 605.78L561.36 605.78L561.36 592.22L561.36 592.22L36 592.22z" /></clipPath><clipPath id="315"><path id="" clip-rule="evenodd" transform="matrix(1 0 0 1 0 0)" d="M36 605.78L561.36 605.78L561.36 605.78L561.36 592.22L561.36 592.22L36 592.22z" /></clipPath><clipPath id="316"><path id="" clip-rule="evenodd" transform="matrix(1 0 0 1 0 0)" d="M36 605.78L561.36 605.78L561.36 605.78L561.36 592.22L561.36 592.22L36 592.22z" /></clipPath><clipPath id="317"><path id="" clip-rule="evenodd" transform="matrix(1 0 0 1 0 0)" d="M33.96 619.46L36 619.46L36 619.46L36 605.78L36 605.78L33.96 605.78z" /></clipPath><clipPath id="318"><path id="" clip-rule="evenodd" transform="matrix(1 0 0 1 0 0)" d="M36 619.46L561.36 619.46L561.36 619.46L561.36 605.78L561.36 605.78L36 605.78z" /></clipPath><clipPath id="319"><path id="" clip-rule="evenodd" transform="matrix(1 0 0 1 0 0)" d="M36 619.46L561.36 619.46L561.36 619.46L561.36 605.78L561.36 605.78L36 605.78z" /></clipPath><clipPath id="320"><path id="" clip-rule="evenodd" transform="matrix(1 0 0 1 0 0)" d="M36 619.46L561.36 619.46L561.36 619.46L561.36 605.78L561.36 605.78L36 605.78z" /></clipPath><clipPath id="321"><path id="" clip-rule="evenodd" transform="matrix(1 0 0 1 0 0)" d="M36 619.46L561.36 619.46L561.36 619.46L561.36 605.78L561.36 605.78L36 605.78z" /></clipPath><clipPath id="322"><path id="" clip-rule="evenodd" transform="matrix(1 0 0 1 0 0)" d="M36 619.46L561.36 619.46L561.36 619.46L561.36 605.78L561.36 605.78L36 605.78z" /></clipPath><clipPath id="323"><path id="" clip-rule="evenodd" transform="matrix(1 0 0 1 0 0)" d="M36 619.46L561.36 619.46L561.36 619.46L561.36 605.78L561.36 605.78L36 605.78z" /></clipPath><clipPath id="324"><path id="" clip-rule="evenodd" transform="matrix(1 0 0 1 0 0)" d="M33.96 633.02L36 633.02L36 633.02L36 619.46L36 619.46L33.96 619.46z" /></clipPath><clipPath id="325"><path id="" clip-rule="evenodd" transform="matrix(1 0 0 1 0 0)" d="M36 633.02L561.36 633.02L561.36 633.02L561.36 619.46L561.36 619.46L36 619.46z" /></clipPath><clipPath id="326"><path id="" clip-rule="evenodd" transform="matrix(1 0 0 1 0 0)" d="M36 633.02L561.36 633.02L561.36 633.02L561.36 619.46L561.36 619.46L36 619.46z" /></clipPath><clipPath id="327"><path id="" clip-rule="evenodd" transform="matrix(1 0 0 1 0 0)" d="M36 633.02L561.36 633.02L561.36 633.02L561.36 619.46L561.36 619.46L36 619.46z" /></clipPath><clipPath id="328"><path id="" clip-rule="evenodd" transform="matrix(1 0 0 1 0 0)" d="M36 633.02L561.36 633.02L561.36 633.02L561.36 619.46L561.36 619.46L36 619.46z" /></clipPath><clipPath id="329"><path id="" clip-rule="evenodd" transform="matrix(1 0 0 1 0 0)" d="M36 633.02L561.36 633.02L561.36 633.02L561.36 619.46L561.36 619.46L36 619.46z" /></clipPath><clipPath id="330"><path id="" clip-rule="evenodd" transform="matrix(1 0 0 1 0 0)" d="M36 633.02L561.36 633.02L561.36 633.02L561.36 619.46L561.36 619.46L36 619.46z" /></clipPath><clipPath id="331"><path id="" clip-rule="evenodd" transform="matrix(1 0 0 1 0 0)" d="M36 633.02L561.36 633.02L561.36 633.02L561.36 619.46L561.36 619.46L36 619.46z" /></clipPath><clipPath id="332"><path id="" clip-rule="evenodd" transform="matrix(1 0 0 1 0 0)" d="M36 633.02L561.36 633.02L561.36 633.02L561.36 619.46L561.36 619.46L36 619.46z" /></clipPath><clipPath id="333"><path id="" clip-rule="evenodd" transform="matrix(1 0 0 1 0 0)" d="M36 633.02L561.36 633.02L561.36 633.02L561.36 619.46L561.36 619.46L36 619.46z" /></clipPath><clipPath id="334"><path id="" clip-rule="evenodd" transform="matrix(1 0 0 1 0 0)" d="M36 633.02L561.36 633.02L561.36 633.02L561.36 619.46L561.36 619.46L36 619.46z" /></clipPath><clipPath id="335"><path id="" clip-rule="evenodd" transform="matrix(1 0 0 1 0 0)" d="M36 633.02L561.36 633.02L561.36 633.02L561.36 619.46L561.36 619.46L36 619.46z" /></clipPath><clipPath id="336"><path id="" clip-rule="evenodd" transform="matrix(1 0 0 1 0 0)" d="M33.96 644.3L561.36 644.3L561.36 644.3L561.36 633.02L561.36 633.02L33.96 633.02z" /></clipPath><clipPath id="337"><path id="" clip-rule="evenodd" transform="matrix(1 0 0 1 0 0)" d="M33.96 660.62L561.36 660.62L561.36 660.62L561.36 644.3L561.36 644.3L33.96 644.3z" /></clipPath><clipPath id="338"><path id="" clip-rule="evenodd" transform="matrix(1 0 0 1 0 0)" d="M33.96 660.62L561.36 660.62L561.36 660.62L561.36 644.3L561.36 644.3L33.96 644.3z" /></clipPath><clipPath id="339"><path id="" clip-rule="evenodd" transform="matrix(1 0 0 1 0 0)" d="M33.96 660.62L561.36 660.62L561.36 660.62L561.36 644.3L561.36 644.3L33.96 644.3z" /></clipPath><clipPath id="340"><path id="" clip-rule="evenodd" transform="matrix(1 0 0 1 0 0)" d="M33.96 664.1L561.36 664.1L561.36 664.1L561.36 661.34L561.36 661.34L33.96 661.34z" /></clipPath><clipPath id="341"><path id="" clip-rule="evenodd" transform="matrix(1 0 0 1 0 0)" d="M33.96 677.78L446.62 677.78L446.62 677.78L446.62 664.1L446.62 664.1L33.96 664.1z" /></clipPath><clipPath id="342"><path id="" clip-rule="evenodd" transform="matrix(1 0 0 1 0 0)" d="M33.96 677.78L446.62 677.78L446.62 677.78L446.62 664.1L446.62 664.1L33.96 664.1z" /></clipPath><clipPath id="343"><path id="" clip-rule="evenodd" transform="matrix(1 0 0 1 0 0)" d="M33.96 677.78L446.62 677.78L446.62 677.78L446.62 664.1L446.62 664.1L33.96 664.1z" /></clipPath><clipPath id="344"><path id="" clip-rule="evenodd" transform="matrix(1 0 0 1 0 0)" d="M446.62 677.78L561.36 677.78L561.36 677.78L561.36 664.1L561.36 664.1L446.62 664.1z" /></clipPath><clipPath id="345"><path id="" clip-rule="evenodd" transform="matrix(1 0 0 1 0 0)" d="M446.62 677.78L561.36 677.78L561.36 677.78L561.36 664.1L561.36 664.1L446.62 664.1z" /></clipPath><clipPath id="346"><path id="" clip-rule="evenodd" transform="matrix(1 0 0 1 0 0)" d="M446.62 677.78L561.36 677.78L561.36 677.78L561.36 664.1L561.36 664.1L446.62 664.1z" /></clipPath><clipPath id="347"><path id="" clip-rule="evenodd" transform="matrix(1 0 0 1 0 0)" d="M446.62 677.78L561.36 677.78L561.36 677.78L561.36 664.1L561.36 664.1L446.62 664.1z" /></clipPath><clipPath id="348"><path id="" clip-rule="evenodd" transform="matrix(1 0 0 1 0 0)" d="M446.62 677.78L561.36 677.78L561.36 677.78L561.36 664.1L561.36 664.1L446.62 664.1z" /></clipPath><clipPath id="349"><path id="" clip-rule="evenodd" transform="matrix(1 0 0 1 0 0)" d="M446.62 677.78L561.36 677.78L561.36 677.78L561.36 664.1L561.36 664.1L446.62 664.1z" /></clipPath><clipPath id="350"><path id="" clip-rule="evenodd" transform="matrix(1 0 0 1 0 0)" d="M33.96 737.8L36 737.8L36 737.8L36 677.776L36 677.776L33.96 677.776z" /></clipPath><clipPath id="351"><path id="" clip-rule="evenodd" transform="matrix(1 0 0 1 0 0)" d="M36 737.8L561.36 737.8L561.36 737.8L561.36 677.776L561.36 677.776L36 677.776z" /></clipPath><clipPath id="352"><path id="" clip-rule="evenodd" transform="matrix(1 0 0 1 0 0)" d="M36 737.8L561.36 737.8L561.36 737.8L561.36 677.776L561.36 677.776L36 677.776z" /></clipPath><clipPath id="353"><path id="" clip-rule="evenodd" transform="matrix(1 0 0 1 0 0)" d="M36 737.8L561.36 737.8L561.36 737.8L561.36 677.776L561.36 677.776L36 677.776z" /></clipPath><clipPath id="354"><path id="" clip-rule="evenodd" transform="matrix(1 0 0 1 0 0)" d="M36 737.8L561.36 737.8L561.36 737.8L561.36 677.776L561.36 677.776L36 677.776z" /></clipPath><clipPath id="355"><path id="" clip-rule="evenodd" transform="matrix(1 0 0 1 0 0)" d="M36 737.8L561.36 737.8L561.36 737.8L561.36 677.776L561.36 677.776L36 677.776z" /></clipPath><clipPath id="356"><path id="" clip-rule="evenodd" transform="matrix(1 0 0 1 0 0)" d="M36 737.8L561.36 737.8L561.36 737.8L561.36 677.776L561.36 677.776L36 677.776z" /></clipPath><clipPath id="357"><path id="" clip-rule="evenodd" transform="matrix(1 0 0 1 0 0)" d="M36 737.8L561.36 737.8L561.36 737.8L561.36 677.776L561.36 677.776L36 677.776z" /></clipPath><clipPath id="358"><path id="" clip-rule="evenodd" transform="matrix(1 0 0 1 0 0)" d="M36 737.8L561.36 737.8L561.36 737.8L561.36 677.776L561.36 677.776L36 677.776z" /></clipPath><clipPath id="359"><path id="" clip-rule="evenodd" transform="matrix(1 0 0 1 0 0)" d="M36 737.8L561.36 737.8L561.36 737.8L561.36 677.776L561.36 677.776L36 677.776z" /></clipPath><clipPath id="360"><path id="" clip-rule="evenodd" transform="matrix(1 0 0 1 0 0)" d="M36 737.8L561.36 737.8L561.36 737.8L561.36 677.776L561.36 677.776L36 677.776z" /></clipPath><clipPath id="361"><path id="" clip-rule="evenodd" transform="matrix(1 0 0 1 0 0)" d="M36 737.8L561.36 737.8L561.36 737.8L561.36 677.776L561.36 677.776L36 677.776z" /></clipPath><clipPath id="362"><path id="" clip-rule="evenodd" transform="matrix(1 0 0 1 0 0)" d="M36 737.8L561.36 737.8L561.36 737.8L561.36 677.776L561.36 677.776L36 677.776z" /></clipPath><clipPath id="363"><path id="" clip-rule="evenodd" transform="matrix(1 0 0 1 0 0)" d="M36 737.8L561.36 737.8L561.36 737.8L561.36 677.776L561.36 677.776L36 677.776z" /></clipPath><clipPath id="364"><path id="" clip-rule="evenodd" transform="matrix(1 0 0 1 0 0)" d="M36 737.8L561.36 737.8L561.36 737.8L561.36 677.776L561.36 677.776L36 677.776z" /></clipPath><clipPath id="365"><path id="" clip-rule="evenodd" transform="matrix(1 0 0 1 0 0)" d="M36 737.8L561.36 737.8L561.36 737.8L561.36 677.776L561.36 677.776L36 677.776z" /></clipPath><clipPath id="366"><path id="" clip-rule="evenodd" transform="matrix(1 0 0 1 0 0)" d="M36 737.8L561.36 737.8L561.36 737.8L561.36 677.776L561.36 677.776L36 677.776z" /></clipPath><clipPath id="367"><path id="" clip-rule="evenodd" transform="matrix(1 0 0 1 0 0)" d="M36 737.8L561.36 737.8L561.36 737.8L561.36 677.776L561.36 677.776L36 677.776z" /></clipPath><clipPath id="368"><path id="" clip-rule="evenodd" transform="matrix(1 0 0 1 0 0)" d="M36 737.8L561.36 737.8L561.36 737.8L561.36 677.776L561.36 677.776L36 677.776z" /></clipPath><clipPath id="369"><path id="" clip-rule="evenodd" transform="matrix(1 0 0 1 0 0)" d="M36 737.8L561.36 737.8L561.36 737.8L561.36 677.776L561.36 677.776L36 677.776z" /></clipPath><clipPath id="370"><path id="" clip-rule="evenodd" transform="matrix(1 0 0 1 0 0)" d="M36 737.8L561.36 737.8L561.36 737.8L561.36 677.776L561.36 677.776L36 677.776z" /></clipPath><clipPath id="371"><path id="" clip-rule="evenodd" transform="matrix(1 0 0 1 0 0)" d="M36 737.8L561.36 737.8L561.36 737.8L561.36 677.776L561.36 677.776L36 677.776z" /></clipPath><clipPath id="372"><path id="" clip-rule="evenodd" transform="matrix(1 0 0 1 0 0)" d="M36 737.8L561.36 737.8L561.36 737.8L561.36 677.776L561.36 677.776L36 677.776z" /></clipPath><clipPath id="373"><path id="" clip-rule="evenodd" transform="matrix(1 0 0 1 0 0)" d="M36 737.8L561.36 737.8L561.36 737.8L561.36 677.776L561.36 677.776L36 677.776z" /></clipPath><clipPath id="374"><path id="" clip-rule="evenodd" transform="matrix(1 0 0 1 0 0)" d="M36 737.8L561.36 737.8L561.36 737.8L561.36 677.776L561.36 677.776L36 677.776z" /></clipPath><clipPath id="375"><path id="" clip-rule="evenodd" transform="matrix(1 0 0 1 0 0)" d="M36 737.8L561.36 737.8L561.36 737.8L561.36 677.776L561.36 677.776L36 677.776z" /></clipPath><clipPath id="376"><path id="" clip-rule="evenodd" transform="matrix(1 0 0 1 0 0)" d="M36 737.8L561.36 737.8L561.36 737.8L561.36 677.776L561.36 677.776L36 677.776z" /></clipPath><clipPath id="377"><path id="" clip-rule="evenodd" transform="matrix(1 0 0 1 0 0)" d="M36 737.8L561.36 737.8L561.36 737.8L561.36 677.776L561.36 677.776L36 677.776z" /></clipPath><clipPath id="378"><path id="" clip-rule="evenodd" transform="matrix(1 0 0 1 0 0)" d="M36 737.8L561.36 737.8L561.36 737.8L561.36 677.776L561.36 677.776L36 677.776z" /></clipPath><clipPath id="379"><path id="" clip-rule="evenodd" transform="matrix(1 0 0 1 0 0)" d="M36 737.8L561.36 737.8L561.36 737.8L561.36 677.776L561.36 677.776L36 677.776z" /></clipPath><clipPath id="380"><path id="" clip-rule="evenodd" transform="matrix(1 0 0 1 0 0)" d="M36 737.8L561.36 737.8L561.36 737.8L561.36 677.776L561.36 677.776L36 677.776z" /></clipPath><clipPath id="381"><path id="" clip-rule="evenodd" transform="matrix(1 0 0 1 0 0)" d="M36 737.8L561.36 737.8L561.36 737.8L561.36 677.776L561.36 677.776L36 677.776z" /></clipPath><clipPath id="382"><path id="" clip-rule="evenodd" transform="matrix(1 0 0 1 0 0)" d="M36 737.8L561.36 737.8L561.36 737.8L561.36 677.776L561.36 677.776L36 677.776z" /></clipPath><clipPath id="383"><path id="" clip-rule="evenodd" transform="matrix(1 0 0 1 0 0)" d="M36 737.8L561.36 737.8L561.36 737.8L561.36 677.776L561.36 677.776L36 677.776z" /></clipPath><clipPath id="384"><path id="" clip-rule="evenodd" transform="matrix(1 0 0 1 0 0)" d="M36 737.8L561.36 737.8L561.36 737.8L561.36 677.776L561.36 677.776L36 677.776z" /></clipPath><clipPath id="385"><path id="" clip-rule="evenodd" transform="matrix(1 0 0 1 0 0)" d="M33.96 740.56L561.36 740.56L561.36 740.56L561.36 737.8001L561.36 737.8001L33.96 737.8001z" /></clipPath><clipPath id="386"><path id="" clip-rule="evenodd" transform="matrix(1 0 0 1 0 0)" d="M33.96 751.84L561.36 751.84L561.36 751.84L561.36 740.56L561.36 740.56L33.96 740.56z" /></clipPath><clipPath id="387"><path id="" clip-rule="evenodd" transform="matrix(1 0 0 1 0 0)" d="M33.96 768.16L561.36 768.16L561.36 768.16L561.36 751.84L561.36 751.84L33.96 751.84z" /></clipPath><clipPath id="388"><path id="" clip-rule="evenodd" transform="matrix(1 0 0 1 0 0)" d="M33.96 768.16L561.36 768.16L561.36 768.16L561.36 751.84L561.36 751.84L33.96 751.84z" /></clipPath><clipPath id="389"><path id="" clip-rule="evenodd" transform="matrix(1 0 0 1 0 0)" d="M33.96 768.16L561.36 768.16L561.36 768.16L561.36 751.84L561.36 751.84L33.96 751.84z" /></clipPath><clipPath id="390"><path id="" clip-rule="evenodd" transform="matrix(1 0 0 1 0 0)" d="M33.96 768.16L561.36 768.16L561.36 768.16L561.36 751.84L561.36 751.84L33.96 751.84z" /></clipPath><clipPath id="391"><path id="" clip-rule="evenodd" transform="matrix(1 0 0 1 0 0)" d="M33.96 768.16L561.36 768.16L561.36 768.16L561.36 751.84L561.36 751.84L33.96 751.84z" /></clipPath><clipPath id="392"><path id="" clip-rule="evenodd" transform="matrix(1 0 0 1 0 0)" d="M33.96 768.16L561.36 768.16L561.36 768.16L561.36 751.84L561.36 751.84L33.96 751.84z" /></clipPath><clipPath id="393"><path id="" clip-rule="evenodd" transform="matrix(1 0 0 1 0 0)" d="M33.96 768.16L561.36 768.16L561.36 768.16L561.36 751.84L561.36 751.84L33.96 751.84z" /></clipPath><clipPath id="394"><path id="" clip-rule="evenodd" transform="matrix(1 0 0 1 0 0)" d="M33.96 768.16L561.36 768.16L561.36 768.16L561.36 751.84L561.36 751.84L33.96 751.84z" /></clipPath><clipPath id="395"><path id="" clip-rule="evenodd" transform="matrix(1 0 0 1 0 0)" d="M33.96 768.16L561.36 768.16L561.36 768.16L561.36 751.84L561.36 751.84L33.96 751.84z" /></clipPath><clipPath id="396"><path id="" clip-rule="evenodd" transform="matrix(1 0 0 1 0 0)" d="M33.96 768.16L561.36 768.16L561.36 768.16L561.36 751.84L561.36 751.84L33.96 751.84z" /></clipPath><clipPath id="397"><path id="" clip-rule="evenodd" transform="matrix(1 0 0 1 0 0)" d="M33.96 798.88L36 798.88L36 798.88L36 768.88L36 768.88L33.96 768.88z" /></clipPath><clipPath id="398"><path id="" clip-rule="evenodd" transform="matrix(1 0 0 1 0 0)" d="M36 798.88L561.36 798.88L561.36 798.88L561.36 768.88L561.36 768.88L36 768.88z" /></clipPath><clipPath id="399"><path id="" clip-rule="evenodd" transform="matrix(1 0 0 1 0 0)" d="M36 798.88L561.36 798.88L561.36 798.88L561.36 768.88L561.36 768.88L36 768.88z" /></clipPath><clipPath id="400"><path id="" clip-rule="evenodd" transform="matrix(1 0 0 1 0 0)" d="M36 798.88L561.36 798.88L561.36 798.88L561.36 768.88L561.36 768.88L36 768.88z" /></clipPath><clipPath id="401"><path id="" clip-rule="evenodd" transform="matrix(1 0 0 1 0 0)" d="M36 798.88L561.36 798.88L561.36 798.88L561.36 768.88L561.36 768.88L36 768.88z" /></clipPath><clipPath id="402"><path id="" clip-rule="evenodd" transform="matrix(1 0 0 1 0 0)" d="M36 798.88L561.36 798.88L561.36 798.88L561.36 768.88L561.36 768.88L36 768.88z" /></clipPath><clipPath id="403"><path id="" clip-rule="evenodd" transform="matrix(1 0 0 1 0 0)" d="M36 798.88L561.36 798.88L561.36 798.88L561.36 768.88L561.36 768.88L36 768.88z" /></clipPath><clipPath id="404"><path id="" clip-rule="evenodd" transform="matrix(1 0 0 1 0 0)" d="M36 798.88L561.36 798.88L561.36 798.88L561.36 768.88L561.36 768.88L36 768.88z" /></clipPath><clipPath id="405"><path id="" clip-rule="evenodd" transform="matrix(1 0 0 1 0 0)" d="M36 798.88L561.36 798.88L561.36 798.88L561.36 768.88L561.36 768.88L36 768.88z" /></clipPath><clipPath id="406"><path id="" clip-rule="evenodd" transform="matrix(1 0 0 1 0 0)" d="M36 798.88L561.36 798.88L561.36 798.88L561.36 768.88L561.36 768.88L36 768.88z" /></clipPath><clipPath id="407"><path id="" clip-rule="evenodd" transform="matrix(1 0 0 1 0 0)" d="M36 798.88L561.36 798.88L561.36 798.88L561.36 768.88L561.36 768.88L36 768.88z" /></clipPath><clipPath id="408"><path id="" clip-rule="evenodd" transform="matrix(1 0 0 1 0 0)" d="M36 798.88L561.36 798.88L561.36 798.88L561.36 768.88L561.36 768.88L36 768.88z" /></clipPath><clipPath id="409"><path id="" clip-rule="evenodd" transform="matrix(1 0 0 1 0 0)" d="M36 798.88L561.36 798.88L561.36 798.88L561.36 768.88L561.36 768.88L36 768.88z" /></clipPath><clipPath id="410"><path id="" clip-rule="evenodd" transform="matrix(1 0 0 1 0 0)" d="M36 798.88L561.36 798.88L561.36 798.88L561.36 768.88L561.36 768.88L36 768.88z" /></clipPath><clipPath id="411"><path id="" clip-rule="evenodd" transform="matrix(1 0 0 1 0 0)" d="M36 798.88L561.36 798.88L561.36 798.88L561.36 768.88L561.36 768.88L36 768.88z" /></clipPath><clipPath id="412"><path id="" clip-rule="evenodd" transform="matrix(1 0 0 1 0 0)" d="M36 798.88L561.36 798.88L561.36 798.88L561.36 768.88L561.36 768.88L36 768.88z" /></clipPath><clipPath id="413"><path id="" clip-rule="evenodd" transform="matrix(1 0 0 1 0 0)" d="M36 798.88L561.36 798.88L561.36 798.88L561.36 768.88L561.36 768.88L36 768.88z" /></clipPath><clipPath id="414"><path id="" clip-rule="evenodd" transform="matrix(1 0 0 1 0 0)" d="M36 798.88L561.36 798.88L561.36 798.88L561.36 768.88L561.36 768.88L36 768.88z" /></clipPath><clipPath id="415"><path id="" clip-rule="evenodd" transform="matrix(1 0 0 1 0 0)" d="M36 798.88L561.36 798.88L561.36 798.88L561.36 768.88L561.36 768.88L36 768.88z" /></clipPath><clipPath id="416"><path id="" clip-rule="evenodd" transform="matrix(1 0 0 1 0 0)" d="M36 798.88L561.36 798.88L561.36 798.88L561.36 768.88L561.36 768.88L36 768.88z" /></clipPath><clipPath id="417"><path id="" clip-rule="evenodd" transform="matrix(1 0 0 1 0 0)" d="M36 798.88L561.36 798.88L561.36 798.88L561.36 768.88L561.36 768.88L36 768.88z" /></clipPath><clipPath id="418"><path id="" clip-rule="evenodd" transform="matrix(1 0 0 1 0 0)" d="M36 798.88L561.36 798.88L561.36 798.88L561.36 768.88L561.36 768.88L36 768.88z" /></clipPath><clipPath id="419"><path id="" clip-rule="evenodd" transform="matrix(1 0 0 1 0 0)" d="M9E-06 841L595.2 841L595.2 841L595.2 -0.7999878L595.2 -0.7999878L9E-06 -0.7999878z" /></clipPath><clipPath id="420"><path id="" clip-rule="evenodd" transform="matrix(1 0 0 1 0 0)" d="M0 840.9999L595.2 840.9999L595.2 840.9999L595.2 -0.8000488L595.2 -0.8000488L0 -0.8000488z" /></clipPath></defs><g transform="matrix(1.333333 0 0 1.333333 0 0)"><g clip-path="url(#1)"><g clip-path="url(#2)"></g><g clip-path="url(#3)"></g><g clip-path="url(#4)"></g><g clip-path="url(#5)"></g><g clip-path="url(#6)"><g clip-path="url(#7)"></g></g><g clip-path="url(#8)"><g clip-path="url(#9)"></g></g><g clip-path="url(#10)"><g clip-path="url(#11)"></g></g><g clip-path="url(#12)"><g clip-path="url(#13)"></g></g><g clip-path="url(#14)"><g clip-path="url(#15)"></g></g><g clip-path="url(#16)"><g clip-path="url(#17)"></g></g><g clip-path="url(#18)"><g clip-path="url(#19)"></g></g><g clip-path="url(#20)"><g clip-path="url(#21)"></g></g><g clip-path="url(#22)"><g clip-path="url(#23)"></g></g><g clip-path="url(#24)"><g clip-path="url(#25)"></g></g><g clip-path="url(#26)"><g clip-path="url(#27)"></g></g><g clip-path="url(#28)"><g clip-path="url(#29)"></g></g><g clip-path="url(#30)"><g clip-path="url(#31)"></g></g><g clip-path="url(#32)"><g clip-path="url(#33)"></g></g><g clip-path="url(#34)"><g clip-path="url(#35)"></g></g><g clip-path="url(#36)"><g clip-path="url(#37)"></g></g><path id="79" transform="matrix(1 0 0 -1 0 841)" d="M33.96 764.26L484.8 764.26L484.8 764.26L484.8 764.98L484.8 764.98L33.96 764.98z" stroke="none" fill="#000000" fill-rule="evenodd" /><g clip-path="url(#38)"></g><g clip-path="url(#39)"></g><g clip-path="url(#40)"></g><g clip-path="url(#41)"></g><g clip-path="url(#42)"></g><g clip-path="url(#43)"></g><g clip-path="url(#44)"></g><g clip-path="url(#45)"></g><g clip-path="url(#46)"></g><g clip-path="url(#47)"></g><g clip-path="url(#48)"></g><path id="134" transform="matrix(1 0 0 -1 0 841)" d="M33.96 747.22L110.664 747.22L110.664 747.22L110.664 747.9399L110.664 747.9399L33.96 747.9399z" stroke="none" fill="#000000" fill-rule="evenodd" /><path id="135" transform="matrix(1 0 0 -1 0 841)" d="M110.66 747.22L111.38 747.22L111.38 747.22L111.38 747.9399L111.38 747.9399L110.66 747.9399z" stroke="none" fill="#000000" fill-rule="evenodd" /><path id="136" transform="matrix(1 0 0 -1 0 841)" d="M111.38 747.22L220.12 747.22L220.12 747.22L220.12 747.9399L220.12 747.9399L111.38 747.9399z" stroke="none" fill="#000000" fill-rule="evenodd" /><path id="137" transform="matrix(1 0 0 -1 0 841)" d="M220.13 747.22L220.85 747.22L220.85 747.22L220.85 747.9399L220.85 747.9399L220.13 747.9399z" stroke="none" fill="#000000" fill-rule="evenodd" /><path id="138" transform="matrix(1 0 0 -1 0 841)" d="M220.85 747.22L298.874 747.22L298.874 747.22L298.874 747.9399L298.874 747.9399L220.85 747.9399z" stroke="none" fill="#000000" fill-rule="evenodd" /><path id="139" transform="matrix(1 0 0 -1 0 841)" d="M298.87 747.22L299.59 747.22L299.59 747.22L299.59 747.9399L299.59 747.9399L298.87 747.9399z" stroke="none" fill="#000000" fill-rule="evenodd" /><path id="140" transform="matrix(1 0 0 -1 0 841)" d="M299.59 747.22L484.8 747.22L484.8 747.22L484.8 747.9399L484.8 747.9399L299.59 747.9399z" stroke="none" fill="#000000" fill-rule="evenodd" /><g clip-path="url(#49)"></g><g clip-path="url(#50)"></g><g clip-path="url(#51)"></g><g clip-path="url(#52)"></g><g clip-path="url(#53)"></g><g clip-path="url(#54)"></g><g clip-path="url(#55)"></g><g clip-path="url(#56)"></g><g clip-path="url(#57)"></g><g clip-path="url(#58)"></g><g clip-path="url(#59)"></g><g clip-path="url(#60)"></g><g clip-path="url(#61)"></g><g clip-path="url(#62)"></g><g clip-path="url(#63)"></g><g clip-path="url(#64)"></g><g clip-path="url(#65)"></g><g clip-path="url(#66)"></g><g clip-path="url(#67)"></g><g clip-path="url(#68)"></g><g clip-path="url(#69)"></g><g clip-path="url(#70)"></g><g clip-path="url(#71)"></g><g clip-path="url(#72)"></g><path id="228" transform="matrix(1 0 0 -1 0 841)" d="M33.96 689.14L301.39 689.14L301.39 689.14L301.39 689.86L301.39 689.86L33.96 689.86z" stroke="none" fill="#000000" fill-rule="evenodd" /><path id="229" transform="matrix(1 0 0 -1 0 841)" d="M301.39 689.14L302.11 689.14L302.11 689.14L302.11 689.86L302.11 689.86L301.39 689.86z" stroke="none" fill="#000000" fill-rule="evenodd" /><path id="230" transform="matrix(1 0 0 -1 0 841)" d="M302.11 689.14L484.8 689.14L484.8 689.14L484.8 689.86L484.8 689.86L302.11 689.86z" stroke="none" fill="#000000" fill-rule="evenodd" /><g clip-path="url(#73)"></g><g clip-path="url(#74)"></g><g clip-path="url(#75)"></g><g clip-path="url(#76)"></g><g clip-path="url(#77)"><path id="274" transform="matrix(1 0 0 -1 0 841)" d="M38.28 673.66L285.07 673.66L285.07 673.66L285.07 674.74L285.07 674.74L38.28 674.74z" stroke="none" fill="#000000" fill-rule="evenodd" /></g><g clip-path="url(#78)"></g><g clip-path="url(#79)"></g><g clip-path="url(#80)"></g><g clip-path="url(#81)"></g><g clip-path="url(#82)"><path id="344" transform="matrix(1 0 0 -1 0 841)" d="M38.28 646.54L126.144 646.54L126.144 646.54L126.144 647.62L126.144 647.62L38.28 647.62z" stroke="none" fill="#000000" fill-rule="evenodd" /></g><g clip-path="url(#83)"></g><g clip-path="url(#84)"></g><g clip-path="url(#85)"></g><g clip-path="url(#86)"></g><g clip-path="url(#87)"></g><g clip-path="url(#88)"></g><g clip-path="url(#89)"></g><g clip-path="url(#90)"></g><g clip-path="url(#91)"></g><g clip-path="url(#92)"></g><g clip-path="url(#93)"></g><g clip-path="url(#94)"></g><g clip-path="url(#95)"></g><g clip-path="url(#96)"></g><g clip-path="url(#97)"></g><g clip-path="url(#98)"></g><g clip-path="url(#99)"></g><g clip-path="url(#100)"></g><g clip-path="url(#101)"></g><g clip-path="url(#102)"></g><g clip-path="url(#103)"></g><g clip-path="url(#104)"></g><g clip-path="url(#105)"></g><g clip-path="url(#106)"></g><g clip-path="url(#107)"></g><g clip-path="url(#108)"></g><g clip-path="url(#109)"><path id="467" transform="matrix(1 0 0 -1 0 841)" d="M38.28 615.34L126.144 615.34L126.144 615.34L126.144 616.42L126.144 616.42L38.28 616.42z" stroke="none" fill="#000000" fill-rule="evenodd" /></g><g clip-path="url(#110)"></g><g clip-path="url(#111)"></g><g clip-path="url(#112)"></g><g clip-path="url(#113)"></g><g clip-path="url(#114)"></g><g clip-path="url(#115)"></g><g clip-path="url(#116)"></g><g clip-path="url(#117)"></g><g clip-path="url(#118)"></g><g clip-path="url(#119)"></g><g clip-path="url(#120)"></g><g clip-path="url(#121)"></g><g clip-path="url(#122)"></g><g clip-path="url(#123)"></g><g clip-path="url(#124)"></g><g clip-path="url(#125)"></g><g clip-path="url(#126)"></g><g clip-path="url(#127)"></g><g clip-path="url(#128)"></g><path id="581" transform="matrix(1 0 0 -1 0 841)" d="M33.24 569.59L561.36 569.59L561.36 569.59L561.36 570.31L561.36 570.31L33.24 570.31z" stroke="none" fill="#000000" fill-rule="evenodd" /><g clip-path="url(#129)"></g><g clip-path="url(#130)"></g><g clip-path="url(#131)"></g><g clip-path="url(#132)"></g><g clip-path="url(#133)"></g><g clip-path="url(#134)"></g><g clip-path="url(#135)"></g><g clip-path="url(#136)"></g><g clip-path="url(#137)"></g><g clip-path="url(#138)"></g><g clip-path="url(#139)"></g><g clip-path="url(#140)"></g><g clip-path="url(#141)"></g><g clip-path="url(#142)"></g><g clip-path="url(#143)"></g><g clip-path="url(#144)"></g><g clip-path="url(#145)"></g><g clip-path="url(#146)"></g><g clip-path="url(#147)"></g><g clip-path="url(#148)"></g><g clip-path="url(#149)"></g><g clip-path="url(#150)"></g><g clip-path="url(#151)"></g><g clip-path="url(#152)"></g><g clip-path="url(#153)"></g><g clip-path="url(#154)"></g><g clip-path="url(#155)"><path id="867" transform="matrix(1 0 0 -1 0 841)" d="M494.76 518.47L544.8 518.47L544.8 518.47L544.8 529.99L544.8 529.99L494.76 529.99z" stroke="none" fill="#FFFFFF" fill-rule="evenodd" /></g><g clip-path="url(#156)"></g><g clip-path="url(#157)"></g><g clip-path="url(#158)"></g><g clip-path="url(#159)"><path id="877" transform="matrix(1 0 0 -1 0 841)" d="M494.76 506.95L528.12 506.95L528.12 506.95L528.12 518.47L528.12 518.47L494.76 518.47z" stroke="none" fill="#FFFFFF" fill-rule="evenodd" /></g><g clip-path="url(#160)"></g><g clip-path="url(#161)"></g><g clip-path="url(#162)"></g><g clip-path="url(#163)"></g><g clip-path="url(#164)"></g><g clip-path="url(#165)"></g><g clip-path="url(#166)"></g><g clip-path="url(#167)"></g><g clip-path="url(#168)"></g><g clip-path="url(#169)"></g><g clip-path="url(#170)"></g><g clip-path="url(#171)"></g><g clip-path="url(#172)"></g><g clip-path="url(#173)"></g><g clip-path="url(#174)"></g><g clip-path="url(#175)"></g><g clip-path="url(#176)"></g><g clip-path="url(#177)"></g><g clip-path="url(#178)"></g><g clip-path="url(#179)"></g><g clip-path="url(#180)"></g><g clip-path="url(#181)"></g><g clip-path="url(#182)"></g><g clip-path="url(#183)"></g><g clip-path="url(#184)"></g><g clip-path="url(#185)"></g><g clip-path="url(#186)"></g><g clip-path="url(#187)"></g><g clip-path="url(#188)"><path id="1129" transform="matrix(1 0 0 -1 0 841)" d="M494.76 454.15L534.24 454.15L534.24 454.15L534.24 465.67L534.24 465.67L494.76 465.67z" stroke="none" fill="#FFFFFF" fill-rule="evenodd" /></g><g clip-path="url(#189)"></g><g clip-path="url(#190)"></g><g clip-path="url(#191)"></g><g clip-path="url(#192)"></g><g clip-path="url(#193)"></g><g clip-path="url(#194)"></g><g clip-path="url(#195)"></g><g clip-path="url(#196)"></g><g clip-path="url(#197)"></g><g clip-path="url(#198)"></g><g clip-path="url(#199)"></g><g clip-path="url(#200)"></g><g clip-path="url(#201)"></g><g clip-path="url(#202)"></g><g clip-path="url(#203)"><path id="1216" transform="matrix(1 0 0 -1 0 841)" d="M328.27 427.73L476.13 427.73L476.13 427.73L476.13 439.25L476.13 439.25L328.27 439.25z" stroke="none" fill="#FFFFFF" fill-rule="evenodd" /></g><g clip-path="url(#204)"></g><g clip-path="url(#205)"></g><g clip-path="url(#206)"></g><g clip-path="url(#207)"><path id="1247" transform="matrix(1 0 0 -1 0 841)" d="M494.76 427.73L551.52 427.73L551.52 427.73L551.52 439.25L551.52 439.25L494.76 439.25z" stroke="none" fill="#FFFFFF" fill-rule="evenodd" /></g><g clip-path="url(#208)"></g><g clip-path="url(#209)"><path id="1259" transform="matrix(1 0 0 -1 0 841)" d="M494.76 416.21L531.48 416.21L531.48 416.21L531.48 427.73L531.48 427.73L494.76 427.73z" stroke="none" fill="#FFFFFF" fill-rule="evenodd" /></g><g clip-path="url(#210)"></g><g clip-path="url(#211)"></g><g clip-path="url(#212)"></g><g clip-path="url(#213)"></g><g clip-path="url(#214)"></g><g clip-path="url(#215)"></g><g clip-path="url(#216)"></g><g clip-path="url(#217)"></g><g clip-path="url(#218)"><path id="1286" transform="matrix(1 0 0 -1 0 841)" d="M32.52 383.93L562.8 383.93L562.8 383.93L562.8 384.41L562.8 384.41L32.52 384.41z" stroke="none" fill="#000000" fill-rule="evenodd" /></g><g clip-path="url(#219)"><g clip-path="url(#220)"></g></g><g clip-path="url(#221)"><g clip-path="url(#222)"></g></g><g clip-path="url(#223)"><g clip-path="url(#224)"></g></g><g clip-path="url(#225)"><g clip-path="url(#226)"></g></g><g clip-path="url(#227)"><g clip-path="url(#228)"></g></g><g clip-path="url(#229)"><g clip-path="url(#230)"></g></g><g clip-path="url(#231)"><g clip-path="url(#232)"></g></g><g clip-path="url(#233)"><g clip-path="url(#234)"></g></g><g clip-path="url(#235)"><g clip-path="url(#236)"></g></g><g clip-path="url(#237)"><g clip-path="url(#238)"></g></g><g clip-path="url(#239)"><g clip-path="url(#240)"></g></g><g clip-path="url(#241)"><g clip-path="url(#242)"><path id="1408" transform="matrix(1 0 0 -1 0 841)" d="M526.56 368.69L548.88 368.69L548.88 368.69L548.88 380.21L548.88 380.21L526.56 380.21z" stroke="none" fill="#FFFFFF" fill-rule="evenodd" /></g></g><g clip-path="url(#243)"><g clip-path="url(#244)"></g></g><g clip-path="url(#245)"><g clip-path="url(#246)"></g></g><g clip-path="url(#247)"><g clip-path="url(#248)"></g></g><g clip-path="url(#249)"><g clip-path="url(#250)"></g></g><g clip-path="url(#251)"><g clip-path="url(#252)"></g></g><g clip-path="url(#253)"><g clip-path="url(#254)"></g></g><g clip-path="url(#255)"><g clip-path="url(#256)"></g></g><g clip-path="url(#257)"><path id="1418" transform="matrix(1 0 0 -1 0 841)" d="M529.2 339.89L551.4 339.89L551.4 339.89L551.4 351.41L551.4 351.41L529.2 351.41z" stroke="none" fill="#FFFFFF" fill-rule="evenodd" /></g><g clip-path="url(#258)"></g><g clip-path="url(#259)"></g><g clip-path="url(#260)"></g><g clip-path="url(#261)"></g><g clip-path="url(#262)"></g><g clip-path="url(#263)"></g><g clip-path="url(#264)"></g><g clip-path="url(#265)"></g><g clip-path="url(#266)"></g><g clip-path="url(#267)"></g><g clip-path="url(#268)"></g><g clip-path="url(#269)"></g><g clip-path="url(#270)"></g><g clip-path="url(#271)"></g><g clip-path="url(#272)"></g><g clip-path="url(#273)"><path id="1570" transform="matrix(1 0 0 -1 0 841)" d="M531.36 306.65L553.56 306.65L553.56 306.65L553.56 318.17L553.56 318.17L531.36 318.17z" stroke="none" fill="#FFFFFF" fill-rule="evenodd" /></g><g clip-path="url(#274)"></g><g clip-path="url(#275)"></g><g clip-path="url(#276)"></g><g clip-path="url(#277)"></g><g clip-path="url(#278)"></g><g clip-path="url(#279)"></g><g clip-path="url(#280)"></g><g clip-path="url(#281)"></g><g clip-path="url(#282)"></g><g clip-path="url(#283)"></g><g clip-path="url(#284)"></g><g clip-path="url(#285)"></g><g clip-path="url(#286)"></g><g clip-path="url(#287)"></g><g clip-path="url(#288)"></g><g clip-path="url(#289)"></g><g clip-path="url(#290)"></g><g clip-path="url(#291)"></g><g clip-path="url(#292)"></g><g clip-path="url(#293)"><path id="1673" transform="matrix(1 0 0 -1 0 841)" d="M529.32 277.1L551.52 277.1L551.52 277.1L551.52 288.62L551.52 288.62L529.32 288.62z" stroke="none" fill="#FFFFFF" fill-rule="evenodd" /></g><g clip-path="url(#294)"></g><g clip-path="url(#295)"></g><g clip-path="url(#296)"></g><g clip-path="url(#297)"></g><g clip-path="url(#298)"></g><g clip-path="url(#299)"></g><g clip-path="url(#300)"></g><g clip-path="url(#301)"></g><g clip-path="url(#302)"></g><g clip-path="url(#303)"></g><g clip-path="url(#304)"></g><g clip-path="url(#305)"></g><g clip-path="url(#306)"></g><g clip-path="url(#307)"></g><g clip-path="url(#308)"></g><path id="1774" transform="matrix(1 0 0 -1 0 841)" d="M33.24 248.78L561.36 248.78L561.36 248.78L561.36 249.5L561.36 249.5L33.24 249.5z" stroke="none" fill="#000000" fill-rule="evenodd" /><g clip-path="url(#309)"></g><g clip-path="url(#310)"><path id="1775" transform="matrix(1 0 0 -1 0 841)" d="M205.01 236.18L479.88 236.18L479.88 236.18L479.88 247.7L479.88 247.7L205.01 247.7z" stroke="none" fill="#FFFFFF" fill-rule="evenodd" /></g><g clip-path="url(#311)"></g><g clip-path="url(#312)"></g><g clip-path="url(#313)"></g><g clip-path="url(#314)"></g><g clip-path="url(#315)"></g><g clip-path="url(#316)"></g><g clip-path="url(#317)"></g><g clip-path="url(#318)"></g><g clip-path="url(#319)"></g><g clip-path="url(#320)"></g><g clip-path="url(#321)"></g><g clip-path="url(#322)"></g><g clip-path="url(#323)"></g><g clip-path="url(#324)"></g><g clip-path="url(#325)"></g><g clip-path="url(#326)"></g><g clip-path="url(#327)"></g><g clip-path="url(#328)"></g><g clip-path="url(#329)"></g><g clip-path="url(#330)"></g><g clip-path="url(#331)"></g><g clip-path="url(#332)"></g><g clip-path="url(#333)"></g><g clip-path="url(#334)"></g><g clip-path="url(#335)"></g><g clip-path="url(#336)"></g><g clip-path="url(#337)"></g><g clip-path="url(#338)"></g><g clip-path="url(#339)"></g><path id="1938" transform="matrix(1 0 0 -1 0 841)" d="M33.24 179.66L561.36 179.66L561.36 179.66L561.36 180.38L561.36 180.38L33.24 180.38z" stroke="none" fill="#000000" fill-rule="evenodd" /><g clip-path="url(#340)"></g><g clip-path="url(#341)"></g><g clip-path="url(#342)"></g><g clip-path="url(#343)"><path id="1955" transform="matrix(1 0 0 -1 0 841)" d="M38.28 164.3L126.144 164.3L126.144 164.3L126.144 165.38L126.144 165.38L38.28 165.38z" stroke="none" fill="#000000" fill-rule="evenodd" /></g><g clip-path="url(#344)"><path id="1956" transform="matrix(1 0 0 -1 0 841)" d="M522.36 164.18L558.6 164.18L558.6 164.18L558.6 175.82L558.6 175.82L522.36 175.82z" stroke="none" fill="#FFFFFF" fill-rule="evenodd" /></g><g clip-path="url(#345)"></g><g clip-path="url(#346)"></g><g clip-path="url(#347)"></g><g clip-path="url(#348)"></g><g clip-path="url(#349)"></g><g clip-path="url(#350)"></g><g clip-path="url(#351)"></g><g clip-path="url(#352)"></g><g clip-path="url(#353)"></g><g clip-path="url(#354)"></g><g clip-path="url(#355)"></g><g clip-path="url(#356)"></g><g clip-path="url(#357)"></g><g clip-path="url(#358)"></g><g clip-path="url(#359)"></g><g clip-path="url(#360)"></g><g clip-path="url(#361)"></g><g clip-path="url(#362)"></g><g clip-path="url(#363)"></g><g clip-path="url(#364)"></g><g clip-path="url(#365)"></g><g clip-path="url(#366)"></g><g clip-path="url(#367)"></g><g clip-path="url(#368)"></g><g clip-path="url(#369)"></g><g clip-path="url(#370)"></g><g clip-path="url(#371)"></g><g clip-path="url(#372)"></g><g clip-path="url(#373)"></g><g clip-path="url(#374)"></g><g clip-path="url(#375)"></g><g clip-path="url(#376)"></g><g clip-path="url(#377)"></g><g clip-path="url(#378)"></g><g clip-path="url(#379)"></g><g clip-path="url(#380)"></g><g clip-path="url(#381)"></g><g clip-path="url(#382)"><path id="2205" transform="matrix(1 0 0 -1 0 841)" d="M38.88 118.56L285.67 118.56L285.67 118.56L285.67 119.64L285.67 119.64L38.88 119.64z" stroke="none" fill="#000000" fill-rule="evenodd" /></g><g clip-path="url(#383)"></g><g clip-path="url(#384)"></g><g clip-path="url(#385)"></g><g clip-path="url(#386)"></g><g clip-path="url(#387)"></g><g clip-path="url(#388)"></g><g clip-path="url(#389)"></g><g clip-path="url(#390)"></g><g clip-path="url(#391)"></g><g clip-path="url(#392)"></g><g clip-path="url(#393)"></g><g clip-path="url(#394)"></g><g clip-path="url(#395)"></g><g clip-path="url(#396)"></g><path id="2260" transform="matrix(1 0 0 -1 0 841)" d="M33.24 72.12L561.36 72.12L561.36 72.12L561.36 72.83997L561.36 72.83997L33.24 72.83997z" stroke="none" fill="#000000" fill-rule="evenodd" /><g clip-path="url(#397)"></g><g clip-path="url(#398)"></g><g clip-path="url(#399)"></g><g clip-path="url(#400)"></g><g clip-path="url(#401)"></g><g clip-path="url(#402)"></g><g clip-path="url(#403)"></g><g clip-path="url(#404)"></g><g clip-path="url(#405)"></g><g clip-path="url(#406)"></g><g clip-path="url(#407)"></g><g clip-path="url(#408)"></g><g clip-path="url(#409)"></g><g clip-path="url(#410)"></g><g clip-path="url(#411)"></g><g clip-path="url(#412)"></g><g clip-path="url(#413)"></g><g clip-path="url(#414)"></g><g clip-path="url(#415)"></g><g clip-path="url(#416)"></g><g clip-path="url(#417)"></g><g clip-path="url(#418)"></g><g clip-path="url(#419)"></g><g clip-path="url(#420)"><g transform="matrix(0.3616848 0 0 0.3611788 490.5 76.5)"><g transform="matrix(1 0 0 1 0 0)"><image x="0" y="0" xlink:href="img_01.png" width="184" height="246" /></g></g></g><path id="2360" transform="matrix(1 0 0 -1 0 841)" d="M490.02 675.29L557.411 675.29L557.411 675.29L557.411 764.979L557.411 764.979L490.02 764.979z" stroke="#000000" stroke-width="0.75" stroke-linecap="round" fill="none" /></g></g></svg>